<?xml version="1.0" encoding="UTF-8" standalone="no"?>
<!DOCTYPE svg PUBLIC "-//W3C//DTD SVG 1.1//EN"
 "http://www.w3.org/Graphics/SVG/1.1/DTD/svg11.dtd">
<!-- Generated by graphviz version 13.1.2 (20250809.0930)
 -->
<!-- Title: workflow Pages: 1 -->
<svg width="1613pt" height="186pt"
 viewBox="0.00 0.00 1613.00 186.00" xmlns="http://www.w3.org/2000/svg" xmlns:xlink="http://www.w3.org/1999/xlink">
<g id="graph0" class="graph" transform="scale(1 1) rotate(0) translate(18 167.84)">
<title>workflow</title>
<!-- accessions -->
<g id="node1" class="node">
<title>accessions</title>
<path fill="#f4f7fa" stroke="#40566b" d="M220.47,-71.83C220.47,-71.83 12,-71.83 12,-71.83 6,-71.83 0,-65.83 0,-59.83 0,-59.83 0,-47.83 0,-47.83 0,-41.83 6,-35.83 12,-35.83 12,-35.83 220.47,-35.83 220.47,-35.83 226.47,-35.83 232.47,-41.83 232.47,-47.83 232.47,-47.83 232.47,-59.83 232.47,-59.83 232.47,-65.83 226.47,-71.83 220.47,-71.83"/>
<text xml:space="preserve" text-anchor="middle" x="116.23" y="-50.13" font-family="Helvetica,sans-Serif" font-size="11.00">Accession + library + assay + context</text>
</g>
<!-- download -->
<g id="node2" class="node">
<title>download</title>
<path fill="#f4f7fa" stroke="#40566b" d="M414.19,-71.83C414.19,-71.83 284.47,-71.83 284.47,-71.83 278.47,-71.83 272.47,-65.83 272.47,-59.83 272.47,-59.83 272.47,-47.83 272.47,-47.83 272.47,-41.83 278.47,-35.83 284.47,-35.83 284.47,-35.83 414.19,-35.83 414.19,-35.83 420.19,-35.83 426.19,-41.83 426.19,-47.83 426.19,-47.83 426.19,-59.83 426.19,-59.83 426.19,-65.83 420.19,-71.83 414.19,-71.83"/>
<text xml:space="preserve" text-anchor="middle" x="349.33" y="-50.13" font-family="Helvetica,sans-Serif" font-size="11.00">Parallel FASTQ download</text>
</g>
<!-- accessions&#45;&gt;download -->
<g id="edge1" class="edge">
<title>accessions&#45;&gt;download</title>
<path fill="none" stroke="#607d8b" d="M232.78,-53.83C243.18,-53.83 253.59,-53.83 263.65,-53.83"/>
<polygon fill="#607d8b" stroke="#607d8b" points="263.51,-56.28 270.51,-53.83 263.51,-51.38 263.51,-56.28"/>
</g>
<!-- preprocess -->
<g id="node3" class="node">
<title>preprocess</title>
<path fill="#f4f7fa" stroke="#40566b" d="M578.66,-71.83C578.66,-71.83 478.19,-71.83 478.19,-71.83 472.19,-71.83 466.19,-65.83 466.19,-59.83 466.19,-59.83 466.19,-47.83 466.19,-47.83 466.19,-41.83 472.19,-35.83 478.19,-35.83 478.19,-35.83 578.66,-35.83 578.66,-35.83 584.66,-35.83 590.66,-41.83 590.66,-47.83 590.66,-47.83 590.66,-59.83 590.66,-59.83 590.66,-65.83 584.66,-71.83 578.66,-71.83"/>
<text xml:space="preserve" text-anchor="middle" x="528.42" y="-50.13" font-family="Helvetica,sans-Serif" font-size="11.00">FastQC + Cutadapt</text>
</g>
<!-- download&#45;&gt;preprocess -->
<g id="edge2" class="edge">
<title>download&#45;&gt;preprocess</title>
<path fill="none" stroke="#607d8b" d="M426.46,-53.83C436.72,-53.83 447.2,-53.83 457.34,-53.83"/>
<polygon fill="#607d8b" stroke="#607d8b" points="457.25,-56.28 464.25,-53.83 457.25,-51.38 457.25,-56.28"/>
</g>
<!-- align -->
<g id="node4" class="node">
<title>align</title>
<path fill="#f4f7fa" stroke="#40566b" d="M785.88,-71.83C785.88,-71.83 642.66,-71.83 642.66,-71.83 636.66,-71.83 630.66,-65.83 630.66,-59.83 630.66,-59.83 630.66,-47.83 630.66,-47.83 630.66,-41.83 636.66,-35.83 642.66,-35.83 642.66,-35.83 785.88,-35.83 785.88,-35.83 791.88,-35.83 797.88,-41.83 797.88,-47.83 797.88,-47.83 797.88,-59.83 797.88,-59.83 797.88,-65.83 791.88,-71.83 785.88,-71.83"/>
<text xml:space="preserve" text-anchor="middle" x="714.27" y="-50.13" font-family="Helvetica,sans-Serif" font-size="11.00">Bowtie2 + BAM processing</text>
</g>
<!-- preprocess&#45;&gt;align -->
<g id="edge3" class="edge">
<title>preprocess&#45;&gt;align</title>
<path fill="none" stroke="#607d8b" d="M591.15,-53.83C601.11,-53.83 611.61,-53.83 622.08,-53.83"/>
<polygon fill="#607d8b" stroke="#607d8b" points="621.96,-56.28 628.96,-53.83 621.96,-51.38 621.96,-56.28"/>
</g>
<!-- atac -->
<g id="node5" class="node">
<title>atac</title>
<path fill="#e8f4ff" stroke="#40566b" d="M990.85,-149.84C990.85,-149.84 849.88,-149.84 849.88,-149.84 843.88,-149.84 837.88,-143.84 837.88,-137.84 837.88,-137.84 837.88,-109.82 837.88,-109.82 837.88,-103.82 843.88,-97.82 849.88,-97.82 849.88,-97.82 990.85,-97.82 990.85,-97.82 996.85,-97.82 1002.85,-103.82 1002.85,-109.82 1002.85,-109.82 1002.85,-137.84 1002.85,-137.84 1002.85,-143.84 996.85,-149.84 990.85,-149.84"/>
<text xml:space="preserve" text-anchor="middle" x="920.37" y="-133.63" font-family="Helvetica,sans-Serif" font-size="11.00">ATAC replicate peaks</text>
<text xml:space="preserve" text-anchor="middle" x="920.37" y="-120.13" font-family="Helvetica,sans-Serif" font-size="11.00">Tn5/MACS3&#45;qpois (default)</text>
<text xml:space="preserve" text-anchor="middle" x="920.37" y="-106.63" font-family="Helvetica,sans-Serif" font-size="11.00">or HMMRATAC</text>
</g>
<!-- align&#45;&gt;atac -->
<g id="edge4" class="edge">
<title>align&#45;&gt;atac</title>
<path fill="none" stroke="#607d8b" d="M769.16,-72.31C789.04,-79.13 812.08,-87.04 834.06,-94.57"/>
<polygon fill="#607d8b" stroke="#607d8b" points="833.25,-96.89 840.67,-96.84 834.84,-92.25 833.25,-96.89"/>
</g>
<!-- chip -->
<g id="node9" class="node">
<title>chip</title>
<path fill="#fff2df" stroke="#40566b" d="M981.48,-73.09C981.48,-73.09 859.25,-73.09 859.25,-73.09 853.25,-73.09 847.25,-67.09 847.25,-61.09 847.25,-61.09 847.25,-46.57 847.25,-46.57 847.25,-40.57 853.25,-34.57 859.25,-34.57 859.25,-34.57 981.48,-34.57 981.48,-34.57 987.48,-34.57 993.48,-40.57 993.48,-46.57 993.48,-46.57 993.48,-61.09 993.48,-61.09 993.48,-67.09 987.48,-73.09 981.48,-73.09"/>
<text xml:space="preserve" text-anchor="middle" x="920.37" y="-56.88" font-family="Helvetica,sans-Serif" font-size="11.00">MACS3 ChIP peaks</text>
<text xml:space="preserve" text-anchor="middle" x="920.37" y="-43.38" font-family="Helvetica,sans-Serif" font-size="11.00">optional matched input</text>
</g>
<!-- align&#45;&gt;chip -->
<g id="edge8" class="edge">
<title>align&#45;&gt;chip</title>
<path fill="none" stroke="#607d8b" d="M798.28,-53.83C811.63,-53.83 825.42,-53.83 838.71,-53.83"/>
<polygon fill="#607d8b" stroke="#607d8b" points="838.39,-56.28 845.39,-53.83 838.39,-51.38 838.39,-56.28"/>
</g>
<!-- qc -->
<g id="node11" class="node">
<title>qc</title>
<path fill="#f1e9fa" stroke="#40566b" d="M1562.26,-71.83C1562.26,-71.83 1415.29,-71.83 1415.29,-71.83 1409.29,-71.83 1403.29,-65.83 1403.29,-59.83 1403.29,-59.83 1403.29,-47.83 1403.29,-47.83 1403.29,-41.83 1409.29,-35.83 1415.29,-35.83 1415.29,-35.83 1562.26,-35.83 1562.26,-35.83 1568.26,-35.83 1574.26,-41.83 1574.26,-47.83 1574.26,-47.83 1574.26,-59.83 1574.26,-59.83 1574.26,-65.83 1568.26,-71.83 1562.26,-71.83"/>
<text xml:space="preserve" text-anchor="middle" x="1488.78" y="-50.13" font-family="Helvetica,sans-Serif" font-size="11.00">FRiP + assay QC + MultiQC</text>
</g>
<!-- align&#45;&gt;qc -->
<g id="edge10" class="edge">
<title>align&#45;&gt;qc</title>
<path fill="none" stroke="#607d8b" d="M773.61,-35.36C793.75,-29.85 816.61,-24.56 837.88,-21.83 1068.17,7.73 1129.86,6.65 1360.29,-21.83 1379.52,-24.21 1400.03,-28.53 1418.84,-33.24"/>
<polygon fill="#607d8b" stroke="#607d8b" points="1418.22,-35.61 1425.61,-34.98 1419.44,-30.87 1418.22,-35.61"/>
</g>
<!-- pool -->
<g id="node6" class="node">
<title>pool</title>
<path fill="#e8f4ff" stroke="#40566b" d="M1175.57,-141.09C1175.57,-141.09 1054.85,-141.09 1054.85,-141.09 1048.85,-141.09 1042.85,-135.09 1042.85,-129.09 1042.85,-129.09 1042.85,-114.57 1042.85,-114.57 1042.85,-108.57 1048.85,-102.57 1054.85,-102.57 1054.85,-102.57 1175.57,-102.57 1175.57,-102.57 1181.57,-102.57 1187.57,-108.57 1187.57,-114.57 1187.57,-114.57 1187.57,-129.09 1187.57,-129.09 1187.57,-135.09 1181.57,-141.09 1175.57,-141.09"/>
<text xml:space="preserve" text-anchor="middle" x="1115.21" y="-124.88" font-family="Helvetica,sans-Serif" font-size="11.00">Pool biological libraries</text>
<text xml:space="preserve" text-anchor="middle" x="1115.21" y="-111.38" font-family="Helvetica,sans-Serif" font-size="11.00">within each context</text>
</g>
<!-- atac&#45;&gt;pool -->
<g id="edge5" class="edge">
<title>atac&#45;&gt;pool</title>
<path fill="none" stroke="#607d8b" d="M1003.15,-122.98C1013.33,-122.88 1023.74,-122.77 1033.91,-122.66"/>
<polygon fill="#607d8b" stroke="#607d8b" points="1033.89,-125.11 1040.86,-122.59 1033.84,-120.21 1033.89,-125.11"/>
</g>
<!-- consensus -->
<g id="node7" class="node">
<title>consensus</title>
<path fill="#dff3e5" stroke="#40566b" d="M1346.41,-140.09C1346.41,-140.09 1241.45,-140.09 1241.45,-140.09 1235.45,-140.09 1229.45,-134.09 1229.45,-128.09 1229.45,-128.09 1229.45,-113.57 1229.45,-113.57 1229.45,-107.57 1235.45,-101.57 1241.45,-101.57 1241.45,-101.57 1346.41,-101.57 1346.41,-101.57 1352.41,-101.57 1358.41,-107.57 1358.41,-113.57 1358.41,-113.57 1358.41,-128.09 1358.41,-128.09 1358.41,-134.09 1352.41,-140.09 1346.41,-140.09"/>
<text xml:space="preserve" text-anchor="middle" x="1293.93" y="-123.88" font-family="Helvetica,sans-Serif" font-size="11.00">Replicate&#45;supported</text>
<text xml:space="preserve" text-anchor="middle" x="1293.93" y="-110.38" font-family="Helvetica,sans-Serif" font-size="11.00">context ATAC peaks</text>
</g>
<!-- pool&#45;&gt;consensus -->
<g id="edge6" class="edge">
<title>pool&#45;&gt;consensus</title>
<path fill="none" stroke="#607d8b" d="M1187.83,-121.43C1198.74,-121.36 1209.99,-121.3 1220.9,-121.24"/>
<polygon fill="#607d8b" stroke="#607d8b" points="1220.67,-123.69 1227.66,-121.2 1220.64,-118.79 1220.67,-123.69"/>
</g>
<!-- master -->
<g id="node8" class="node">
<title>master</title>
<path fill="#ccebd6" stroke="#40566b" d="M1565.26,-140.09C1565.26,-140.09 1412.29,-140.09 1412.29,-140.09 1406.29,-140.09 1400.29,-134.09 1400.29,-128.09 1400.29,-128.09 1400.29,-113.57 1400.29,-113.57 1400.29,-107.57 1406.29,-101.57 1412.29,-101.57 1412.29,-101.57 1565.26,-101.57 1565.26,-101.57 1571.26,-101.57 1577.26,-107.57 1577.26,-113.57 1577.26,-113.57 1577.26,-128.09 1577.26,-128.09 1577.26,-134.09 1571.26,-140.09 1565.26,-140.09"/>
<text xml:space="preserve" text-anchor="middle" x="1488.78" y="-123.88" font-family="Helvetica,sans-Serif" font-size="11.00">Summit&#45;aware cross&#45;context</text>
<text xml:space="preserve" text-anchor="middle" x="1488.78" y="-110.38" font-family="Helvetica,sans-Serif" font-size="11.00">master DHS registry</text>
</g>
<!-- consensus&#45;&gt;master -->
<g id="edge7" class="edge">
<title>consensus&#45;&gt;master</title>
<path fill="none" stroke="#607d8b" d="M1358.88,-120.83C1369.36,-120.83 1380.43,-120.83 1391.49,-120.83"/>
<polygon fill="#607d8b" stroke="#607d8b" points="1391.42,-123.28 1398.42,-120.83 1391.42,-118.38 1391.42,-123.28"/>
</g>
<!-- consensus&#45;&gt;qc -->
<g id="edge11" class="edge">
<title>consensus&#45;&gt;qc</title>
<path fill="none" stroke="#607d8b" d="M1351.75,-101.09C1375.3,-92.91 1402.68,-83.4 1426.67,-75.06"/>
<polygon fill="#607d8b" stroke="#607d8b" points="1427.43,-77.39 1433.23,-72.78 1425.82,-72.76 1427.43,-77.39"/>
</g>
<!-- chipout -->
<g id="node10" class="node">
<title>chipout</title>
<path fill="#fff2df" stroke="#40566b" d="M1348.29,-73.09C1348.29,-73.09 1239.57,-73.09 1239.57,-73.09 1233.57,-73.09 1227.57,-67.09 1227.57,-61.09 1227.57,-61.09 1227.57,-46.57 1227.57,-46.57 1227.57,-40.57 1233.57,-34.57 1239.57,-34.57 1239.57,-34.57 1348.29,-34.57 1348.29,-34.57 1354.29,-34.57 1360.29,-40.57 1360.29,-46.57 1360.29,-46.57 1360.29,-61.09 1360.29,-61.09 1360.29,-67.09 1354.29,-73.09 1348.29,-73.09"/>
<text xml:space="preserve" text-anchor="middle" x="1293.93" y="-56.88" font-family="Helvetica,sans-Serif" font-size="11.00">Per&#45;biosample ChIP</text>
<text xml:space="preserve" text-anchor="middle" x="1293.93" y="-43.38" font-family="Helvetica,sans-Serif" font-size="11.00">peaks + CPM BigWig</text>
</g>
<!-- chip&#45;&gt;chipout -->
<g id="edge9" class="edge">
<title>chip&#45;&gt;chipout</title>
<path fill="none" stroke="#607d8b" d="M993.89,-53.83C1058.8,-53.83 1153.54,-53.83 1218.91,-53.83"/>
<polygon fill="#607d8b" stroke="#607d8b" points="1218.62,-56.28 1225.62,-53.83 1218.62,-51.38 1218.62,-56.28"/>
</g>
<!-- chipout&#45;&gt;qc -->
<g id="edge12" class="edge">
<title>chipout&#45;&gt;qc</title>
<path fill="none" stroke="#607d8b" d="M1360.76,-53.83C1371.64,-53.83 1383.11,-53.83 1394.52,-53.83"/>
<polygon fill="#607d8b" stroke="#607d8b" points="1394.3,-56.28 1401.3,-53.83 1394.3,-51.38 1394.3,-56.28"/>
</g>
</g>
</svg>
