<?xml version="1.0" encoding="UTF-8" standalone="no"?>
<!DOCTYPE svg PUBLIC "-//W3C//DTD SVG 1.1//EN"
 "http://www.w3.org/Graphics/SVG/1.1/DTD/svg11.dtd">
<!-- Generated by graphviz version 2.43.0 (0)
 -->
<!-- Title: snakemake_dag Pages: 1 -->
<svg width="1493pt" height="620pt"
 viewBox="0.00 0.00 1492.50 620.00" xmlns="http://www.w3.org/2000/svg" xmlns:xlink="http://www.w3.org/1999/xlink">
<g id="graph0" class="graph" transform="scale(1 1) rotate(0) translate(4 616)">
<title>snakemake_dag</title>
<polygon fill="white" stroke="transparent" points="-4,4 -4,-616 1488.5,-616 1488.5,4 -4,4"/>
<!-- 0 -->
<g id="node1" class="node">
<title>0</title>
<path fill="none" stroke="#d86e56" stroke-width="2" d="M692,-36C692,-36 662,-36 662,-36 656,-36 650,-30 650,-24 650,-24 650,-12 650,-12 650,-6 656,0 662,0 662,0 692,0 692,0 698,0 704,-6 704,-12 704,-12 704,-24 704,-24 704,-30 698,-36 692,-36"/>
<text text-anchor="middle" x="677" y="-15.5" font-family="sans" font-size="10.00">all</text>
</g>
<!-- 1 -->
<g id="node2" class="node">
<title>1</title>
<path fill="none" stroke="#ced856" stroke-width="2" d="M396.5,-612C396.5,-612 337.5,-612 337.5,-612 331.5,-612 325.5,-606 325.5,-600 325.5,-600 325.5,-588 325.5,-588 325.5,-582 331.5,-576 337.5,-576 337.5,-576 396.5,-576 396.5,-576 402.5,-576 408.5,-582 408.5,-588 408.5,-588 408.5,-600 408.5,-600 408.5,-606 402.5,-612 396.5,-612"/>
<text text-anchor="middle" x="367" y="-591.5" font-family="sans" font-size="10.00">bowtie2_index</text>
</g>
<!-- 1&#45;&gt;0 -->
<g id="edge10" class="edge">
<title>1&#45;&gt;0</title>
<path fill="none" stroke="grey" stroke-width="2" d="M325.26,-585.99C229.07,-568.64 0,-520.09 0,-451 0,-451 0,-451 0,-161 0,-115.41 12.56,-96.5 51,-72 100.71,-40.32 512.84,-24.35 639.87,-20.15"/>
<polygon fill="grey" stroke="grey" stroke-width="2" points="640.01,-23.65 649.89,-19.82 639.78,-16.65 640.01,-23.65"/>
</g>
<!-- 6 -->
<g id="node7" class="node">
<title>6</title>
<path fill="none" stroke="#d85656" stroke-width="2" d="M753,-540C753,-540 715,-540 715,-540 709,-540 703,-534 703,-528 703,-528 703,-516 703,-516 703,-510 709,-504 715,-504 715,-504 753,-504 753,-504 759,-504 765,-510 765,-516 765,-516 765,-528 765,-528 765,-534 759,-540 753,-540"/>
<text text-anchor="middle" x="734" y="-519.5" font-family="sans" font-size="10.00">align_lane</text>
</g>
<!-- 1&#45;&gt;6 -->
<g id="edge23" class="edge">
<title>1&#45;&gt;6</title>
<path fill="none" stroke="grey" stroke-width="2" d="M408.74,-585.04C479.65,-571.51 622.77,-544.22 693.1,-530.8"/>
<polygon fill="grey" stroke="grey" stroke-width="2" points="693.77,-534.24 702.93,-528.93 692.46,-527.36 693.77,-534.24"/>
</g>
<!-- 2 -->
<g id="node3" class="node">
<title>2</title>
<path fill="none" stroke="#56d873" stroke-width="2" d="M168,-252C168,-252 124,-252 124,-252 118,-252 112,-246 112,-240 112,-240 112,-228 112,-228 112,-222 118,-216 124,-216 124,-216 168,-216 168,-216 174,-216 180,-222 180,-228 180,-228 180,-240 180,-240 180,-246 174,-252 168,-252"/>
<text text-anchor="middle" x="146" y="-231.5" font-family="sans" font-size="10.00">fasta_index</text>
</g>
<!-- 2&#45;&gt;0 -->
<g id="edge3" class="edge">
<title>2&#45;&gt;0</title>
<path fill="none" stroke="grey" stroke-width="2" d="M157.81,-215.79C164.49,-205.63 172.74,-192.38 179,-180 202.3,-133.89 180.99,-103.43 222,-72 287.1,-22.11 542.68,-18.21 639.53,-18.57"/>
<polygon fill="grey" stroke="grey" stroke-width="2" points="639.71,-22.08 649.73,-18.63 639.75,-15.08 639.71,-22.08"/>
</g>
<!-- 3 -->
<g id="node4" class="node">
<title>3</title>
<path fill="none" stroke="#56d86b" stroke-width="2" d="M158,-180C158,-180 78,-180 78,-180 72,-180 66,-174 66,-168 66,-168 66,-156 66,-156 66,-150 72,-144 78,-144 78,-144 158,-144 158,-144 164,-144 170,-150 170,-156 170,-156 170,-168 170,-168 170,-174 164,-180 158,-180"/>
<text text-anchor="middle" x="118" y="-159.5" font-family="sans" font-size="10.00">chromosome_sizes</text>
</g>
<!-- 2&#45;&gt;3 -->
<g id="edge19" class="edge">
<title>2&#45;&gt;3</title>
<path fill="none" stroke="grey" stroke-width="2" d="M139.08,-215.7C135.93,-207.81 132.12,-198.3 128.62,-189.55"/>
<polygon fill="grey" stroke="grey" stroke-width="2" points="131.81,-188.09 124.84,-180.1 125.31,-190.69 131.81,-188.09"/>
</g>
<!-- 3&#45;&gt;0 -->
<g id="edge17" class="edge">
<title>3&#45;&gt;0</title>
<path fill="none" stroke="grey" stroke-width="2" d="M125.38,-143.85C135.36,-122.96 155.29,-88.44 184,-72 261.75,-27.49 538.95,-20.32 639.89,-19.2"/>
<polygon fill="grey" stroke="grey" stroke-width="2" points="639.97,-22.7 649.93,-19.1 639.9,-15.7 639.97,-22.7"/>
</g>
<!-- 8 -->
<g id="node9" class="node">
<title>8</title>
<path fill="none" stroke="#d8d356" stroke-width="2" d="M119.5,-108C119.5,-108 72.5,-108 72.5,-108 66.5,-108 60.5,-102 60.5,-96 60.5,-96 60.5,-84 60.5,-84 60.5,-78 66.5,-72 72.5,-72 72.5,-72 119.5,-72 119.5,-72 125.5,-72 131.5,-78 131.5,-84 131.5,-84 131.5,-96 131.5,-96 131.5,-102 125.5,-108 119.5,-108"/>
<text text-anchor="middle" x="96" y="-87.5" font-family="sans" font-size="10.00">bigwig_cpm</text>
</g>
<!-- 3&#45;&gt;8 -->
<g id="edge25" class="edge">
<title>3&#45;&gt;8</title>
<path fill="none" stroke="grey" stroke-width="2" d="M112.56,-143.7C110.11,-135.9 107.16,-126.51 104.43,-117.83"/>
<polygon fill="grey" stroke="grey" stroke-width="2" points="107.71,-116.59 101.38,-108.1 101.04,-118.69 107.71,-116.59"/>
</g>
<!-- 4 -->
<g id="node5" class="node">
<title>4</title>
<path fill="none" stroke="#56d8a9" stroke-width="2" d="M754,-396C754,-396 714,-396 714,-396 708,-396 702,-390 702,-384 702,-384 702,-372 702,-372 702,-366 708,-360 714,-360 714,-360 754,-360 754,-360 760,-360 766,-366 766,-372 766,-372 766,-384 766,-384 766,-390 760,-396 754,-396"/>
<text text-anchor="middle" x="734" y="-375.5" font-family="sans" font-size="10.00">filter_bam</text>
</g>
<!-- 4&#45;&gt;0 -->
<g id="edge16" class="edge">
<title>4&#45;&gt;0</title>
<path fill="none" stroke="grey" stroke-width="2" d="M734,-359.95C734,-333.29 734,-280.11 734,-235 734,-235 734,-235 734,-161 734,-117.8 711,-72.19 694.22,-44.66"/>
<polygon fill="grey" stroke="grey" stroke-width="2" points="697.09,-42.65 688.81,-36.04 691.17,-46.37 697.09,-42.65"/>
</g>
<!-- 4&#45;&gt;8 -->
<g id="edge24" class="edge">
<title>4&#45;&gt;8</title>
<path fill="none" stroke="grey" stroke-width="2" d="M701.78,-375.4C604.67,-370.3 316.09,-353.04 227,-324 132.86,-293.31 84.77,-275.04 57,-180 52.51,-164.64 52.01,-159.2 57,-144 60.31,-133.91 66.37,-124.15 72.73,-115.82"/>
<polygon fill="grey" stroke="grey" stroke-width="2" points="75.5,-117.97 79.11,-108.01 70.08,-113.54 75.5,-117.97"/>
</g>
<!-- 10 -->
<g id="node11" class="node">
<title>10</title>
<path fill="none" stroke="#d88d56" stroke-width="2" d="M1123.5,-324C1123.5,-324 1062.5,-324 1062.5,-324 1056.5,-324 1050.5,-318 1050.5,-312 1050.5,-312 1050.5,-300 1050.5,-300 1050.5,-294 1056.5,-288 1062.5,-288 1062.5,-288 1123.5,-288 1123.5,-288 1129.5,-288 1135.5,-294 1135.5,-300 1135.5,-300 1135.5,-312 1135.5,-312 1135.5,-318 1129.5,-324 1123.5,-324"/>
<text text-anchor="middle" x="1093" y="-303.5" font-family="sans" font-size="10.00">atac_shift_bam</text>
</g>
<!-- 4&#45;&gt;10 -->
<g id="edge27" class="edge">
<title>4&#45;&gt;10</title>
<path fill="none" stroke="grey" stroke-width="2" d="M766.17,-370.73C828.14,-358.64 964.59,-332.04 1040.11,-317.31"/>
<polygon fill="grey" stroke="grey" stroke-width="2" points="1041.2,-320.67 1050.35,-315.32 1039.86,-313.79 1041.2,-320.67"/>
</g>
<!-- 11 -->
<g id="node12" class="node">
<title>11</title>
<path fill="none" stroke="#56d8a2" stroke-width="2" d="M586,-324C586,-324 466,-324 466,-324 460,-324 454,-318 454,-312 454,-312 454,-300 454,-300 454,-294 460,-288 466,-288 466,-288 586,-288 586,-288 592,-288 598,-294 598,-300 598,-300 598,-312 598,-312 598,-318 592,-324 586,-324"/>
<text text-anchor="middle" x="526" y="-303.5" font-family="sans" font-size="10.00">filter_atac_short_fragments</text>
</g>
<!-- 4&#45;&gt;11 -->
<g id="edge28" class="edge">
<title>4&#45;&gt;11</title>
<path fill="none" stroke="grey" stroke-width="2" d="M701.96,-366.22C671.31,-355.9 624.3,-340.08 586.58,-327.39"/>
<polygon fill="grey" stroke="grey" stroke-width="2" points="587.31,-323.94 576.71,-324.07 585.07,-330.57 587.31,-323.94"/>
</g>
<!-- 16 -->
<g id="node17" class="node">
<title>16</title>
<path fill="none" stroke="#d8b456" stroke-width="2" d="M694,-252C694,-252 566,-252 566,-252 560,-252 554,-246 554,-240 554,-240 554,-228 554,-228 554,-222 560,-216 566,-216 566,-216 694,-216 694,-216 700,-216 706,-222 706,-228 706,-228 706,-240 706,-240 706,-246 700,-252 694,-252"/>
<text text-anchor="middle" x="630" y="-231.5" font-family="sans" font-size="10.00">atac_short_fragment_metrics</text>
</g>
<!-- 4&#45;&gt;16 -->
<g id="edge34" class="edge">
<title>4&#45;&gt;16</title>
<path fill="none" stroke="grey" stroke-width="2" d="M721.46,-359.87C703.34,-335.14 669.73,-289.24 648.68,-260.51"/>
<polygon fill="grey" stroke="grey" stroke-width="2" points="651.32,-258.19 642.59,-252.19 645.67,-262.33 651.32,-258.19"/>
</g>
<!-- 17 -->
<g id="node18" class="node">
<title>17</title>
<path fill="none" stroke="#56d8c1" stroke-width="2" d="M818.5,-324C818.5,-324 779.5,-324 779.5,-324 773.5,-324 767.5,-318 767.5,-312 767.5,-312 767.5,-300 767.5,-300 767.5,-294 773.5,-288 779.5,-288 779.5,-288 818.5,-288 818.5,-288 824.5,-288 830.5,-294 830.5,-300 830.5,-300 830.5,-312 830.5,-312 830.5,-318 824.5,-324 818.5,-324"/>
<text text-anchor="middle" x="799" y="-303.5" font-family="sans" font-size="10.00">hmmratac</text>
</g>
<!-- 4&#45;&gt;17 -->
<g id="edge36" class="edge">
<title>4&#45;&gt;17</title>
<path fill="none" stroke="grey" stroke-width="2" d="M750.07,-359.7C757.94,-351.22 767.56,-340.86 776.17,-331.58"/>
<polygon fill="grey" stroke="grey" stroke-width="2" points="778.88,-333.81 783.12,-324.1 773.75,-329.05 778.88,-333.81"/>
</g>
<!-- 18 -->
<g id="node19" class="node">
<title>18</title>
<path fill="none" stroke="#56d8b9" stroke-width="2" d="M880,-252C880,-252 850,-252 850,-252 844,-252 838,-246 838,-240 838,-240 838,-228 838,-228 838,-222 844,-216 850,-216 850,-216 880,-216 880,-216 886,-216 892,-222 892,-228 892,-228 892,-240 892,-240 892,-246 886,-252 880,-252"/>
<text text-anchor="middle" x="865" y="-231.5" font-family="sans" font-size="10.00">frip</text>
</g>
<!-- 4&#45;&gt;18 -->
<g id="edge37" class="edge">
<title>4&#45;&gt;18</title>
<path fill="none" stroke="grey" stroke-width="2" d="M766.4,-368.26C789.75,-360.36 820.33,-346.45 839,-324 853.44,-306.64 859.86,-281.59 862.71,-262.48"/>
<polygon fill="grey" stroke="grey" stroke-width="2" points="866.22,-262.65 863.99,-252.3 859.28,-261.78 866.22,-262.65"/>
</g>
<!-- 21 -->
<g id="node22" class="node">
<title>21</title>
<path fill="none" stroke="#d88556" stroke-width="2" d="M358,-324C358,-324 248,-324 248,-324 242,-324 236,-318 236,-312 236,-312 236,-300 236,-300 236,-294 242,-288 248,-288 248,-288 358,-288 358,-288 364,-288 370,-294 370,-300 370,-300 370,-312 370,-312 370,-318 364,-324 358,-324"/>
<text text-anchor="middle" x="303" y="-303.5" font-family="sans" font-size="10.00">atac_fragment_histogram</text>
</g>
<!-- 4&#45;&gt;21 -->
<g id="edge41" class="edge">
<title>4&#45;&gt;21</title>
<path fill="none" stroke="grey" stroke-width="2" d="M701.96,-371.8C634.41,-360.83 475.77,-335.06 380.13,-319.53"/>
<polygon fill="grey" stroke="grey" stroke-width="2" points="380.65,-316.07 370.22,-317.92 379.53,-322.97 380.65,-316.07"/>
</g>
<!-- 23 -->
<g id="node24" class="node">
<title>23</title>
<path fill="none" stroke="#d85e56" stroke-width="2" d="M987.5,-252C987.5,-252 922.5,-252 922.5,-252 916.5,-252 910.5,-246 910.5,-240 910.5,-240 910.5,-228 910.5,-228 910.5,-222 916.5,-216 922.5,-216 922.5,-216 987.5,-216 987.5,-216 993.5,-216 999.5,-222 999.5,-228 999.5,-228 999.5,-240 999.5,-240 999.5,-246 993.5,-252 987.5,-252"/>
<text text-anchor="middle" x="955" y="-231.5" font-family="sans" font-size="10.00">alignment_stats</text>
</g>
<!-- 4&#45;&gt;23 -->
<g id="edge45" class="edge">
<title>4&#45;&gt;23</title>
<path fill="none" stroke="grey" stroke-width="2" d="M766.12,-367.4C793.03,-358.52 831.78,-343.71 862,-324 889.64,-305.97 916.33,-279.13 933.98,-259.64"/>
<polygon fill="grey" stroke="grey" stroke-width="2" points="936.7,-261.85 940.73,-252.05 931.47,-257.19 936.7,-261.85"/>
</g>
<!-- 5 -->
<g id="node6" class="node">
<title>5</title>
<path fill="none" stroke="#56d8d0" stroke-width="2" d="M796.5,-468C796.5,-468 671.5,-468 671.5,-468 665.5,-468 659.5,-462 659.5,-456 659.5,-456 659.5,-444 659.5,-444 659.5,-438 665.5,-432 671.5,-432 671.5,-432 796.5,-432 796.5,-432 802.5,-432 808.5,-438 808.5,-444 808.5,-444 808.5,-456 808.5,-456 808.5,-462 802.5,-468 796.5,-468"/>
<text text-anchor="middle" x="734" y="-447.5" font-family="sans" font-size="10.00">merge_and_mark_duplicates</text>
</g>
<!-- 5&#45;&gt;4 -->
<g id="edge20" class="edge">
<title>5&#45;&gt;4</title>
<path fill="none" stroke="grey" stroke-width="2" d="M734,-431.7C734,-423.98 734,-414.71 734,-406.11"/>
<polygon fill="grey" stroke="grey" stroke-width="2" points="737.5,-406.1 734,-396.1 730.5,-406.1 737.5,-406.1"/>
</g>
<!-- 6&#45;&gt;5 -->
<g id="edge21" class="edge">
<title>6&#45;&gt;5</title>
<path fill="none" stroke="grey" stroke-width="2" d="M734,-503.7C734,-495.98 734,-486.71 734,-478.11"/>
<polygon fill="grey" stroke="grey" stroke-width="2" points="737.5,-478.1 734,-468.1 730.5,-478.1 737.5,-478.1"/>
</g>
<!-- 7 -->
<g id="node8" class="node">
<title>7</title>
<path fill="none" stroke="#566bd8" stroke-width="2" d="M1037,-612C1037,-612 1007,-612 1007,-612 1001,-612 995,-606 995,-600 995,-600 995,-588 995,-588 995,-582 1001,-576 1007,-576 1007,-576 1037,-576 1037,-576 1043,-576 1049,-582 1049,-588 1049,-588 1049,-600 1049,-600 1049,-606 1043,-612 1037,-612"/>
<text text-anchor="middle" x="1022" y="-591.5" font-family="sans" font-size="10.00">trim_pe</text>
</g>
<!-- 7&#45;&gt;6 -->
<g id="edge22" class="edge">
<title>7&#45;&gt;6</title>
<path fill="none" stroke="grey" stroke-width="2" d="M994.91,-586.41C944.21,-574.09 834.75,-547.49 774.98,-532.96"/>
<polygon fill="grey" stroke="grey" stroke-width="2" points="775.67,-529.53 765.13,-530.57 774.02,-536.33 775.67,-529.53"/>
</g>
<!-- 24 -->
<g id="node25" class="node">
<title>24</title>
<path fill="none" stroke="#56c1d8" stroke-width="2" d="M1019,-108C1019,-108 989,-108 989,-108 983,-108 977,-102 977,-96 977,-96 977,-84 977,-84 977,-78 983,-72 989,-72 989,-72 1019,-72 1019,-72 1025,-72 1031,-78 1031,-84 1031,-84 1031,-96 1031,-96 1031,-102 1025,-108 1019,-108"/>
<text text-anchor="middle" x="1004" y="-87.5" font-family="sans" font-size="10.00">multiqc</text>
</g>
<!-- 7&#45;&gt;24 -->
<g id="edge48" class="edge">
<title>7&#45;&gt;24</title>
<path fill="none" stroke="grey" stroke-width="2" d="M1049.04,-581.01C1090.24,-560.69 1164,-515.32 1164,-451 1164,-451 1164,-451 1164,-233 1164,-189.81 1155.97,-174.1 1125,-144 1096.67,-116.47 1077.66,-124.52 1040.45,-109.7"/>
<polygon fill="grey" stroke="grey" stroke-width="2" points="1041.7,-106.43 1031.14,-105.66 1038.92,-112.85 1041.7,-106.43"/>
</g>
<!-- 26 -->
<g id="node27" class="node">
<title>26</title>
<path fill="none" stroke="#56d88a" stroke-width="2" d="M1054.5,-468C1054.5,-468 989.5,-468 989.5,-468 983.5,-468 977.5,-462 977.5,-456 977.5,-456 977.5,-444 977.5,-444 977.5,-438 983.5,-432 989.5,-432 989.5,-432 1054.5,-432 1054.5,-432 1060.5,-432 1066.5,-438 1066.5,-444 1066.5,-444 1066.5,-456 1066.5,-456 1066.5,-462 1060.5,-468 1054.5,-468"/>
<text text-anchor="middle" x="1022" y="-447.5" font-family="sans" font-size="10.00">fastqc_trimmed</text>
</g>
<!-- 7&#45;&gt;26 -->
<g id="edge52" class="edge">
<title>7&#45;&gt;26</title>
<path fill="none" stroke="grey" stroke-width="2" d="M1022,-575.87C1022,-551.67 1022,-507.21 1022,-478.39"/>
<polygon fill="grey" stroke="grey" stroke-width="2" points="1025.5,-478.19 1022,-468.19 1018.5,-478.19 1025.5,-478.19"/>
</g>
<!-- 8&#45;&gt;0 -->
<g id="edge12" class="edge">
<title>8&#45;&gt;0</title>
<path fill="none" stroke="grey" stroke-width="2" d="M131.77,-75.74C136.51,-74.31 141.34,-73.01 146,-72 328.3,-32.45 552.33,-22.33 639.66,-19.81"/>
<polygon fill="grey" stroke="grey" stroke-width="2" points="639.96,-23.3 649.86,-19.53 639.77,-16.3 639.96,-23.3"/>
</g>
<!-- 9 -->
<g id="node10" class="node">
<title>9</title>
<path fill="none" stroke="#d89c56" stroke-width="2" d="M1287.5,-252C1287.5,-252 1204.5,-252 1204.5,-252 1198.5,-252 1192.5,-246 1192.5,-240 1192.5,-240 1192.5,-228 1192.5,-228 1192.5,-222 1198.5,-216 1204.5,-216 1204.5,-216 1287.5,-216 1287.5,-216 1293.5,-216 1299.5,-222 1299.5,-228 1299.5,-228 1299.5,-240 1299.5,-240 1299.5,-246 1293.5,-252 1287.5,-252"/>
<text text-anchor="middle" x="1246" y="-231.5" font-family="sans" font-size="10.00">atac_shifted_bigwig</text>
</g>
<!-- 9&#45;&gt;0 -->
<g id="edge11" class="edge">
<title>9&#45;&gt;0</title>
<path fill="none" stroke="grey" stroke-width="2" d="M1236.07,-215.79C1224.21,-196.41 1202.84,-164.91 1178,-144 1125.07,-99.45 1105.82,-93.3 1040,-72 924.96,-34.78 780.92,-23.62 714.15,-20.33"/>
<polygon fill="grey" stroke="grey" stroke-width="2" points="714.26,-16.83 704.11,-19.87 713.94,-23.83 714.26,-16.83"/>
</g>
<!-- 20 -->
<g id="node21" class="node">
<title>20</title>
<path fill="none" stroke="#d8bc56" stroke-width="2" d="M1305.5,-180C1305.5,-180 1242.5,-180 1242.5,-180 1236.5,-180 1230.5,-174 1230.5,-168 1230.5,-168 1230.5,-156 1230.5,-156 1230.5,-150 1236.5,-144 1242.5,-144 1242.5,-144 1305.5,-144 1305.5,-144 1311.5,-144 1317.5,-150 1317.5,-156 1317.5,-156 1317.5,-168 1317.5,-168 1317.5,-174 1311.5,-180 1305.5,-180"/>
<text text-anchor="middle" x="1274" y="-159.5" font-family="sans" font-size="10.00">atac_tss_matrix</text>
</g>
<!-- 9&#45;&gt;20 -->
<g id="edge40" class="edge">
<title>9&#45;&gt;20</title>
<path fill="none" stroke="grey" stroke-width="2" d="M1252.92,-215.7C1256.07,-207.81 1259.88,-198.3 1263.38,-189.55"/>
<polygon fill="grey" stroke="grey" stroke-width="2" points="1266.69,-190.69 1267.16,-180.1 1260.19,-188.09 1266.69,-190.69"/>
</g>
<!-- 10&#45;&gt;9 -->
<g id="edge26" class="edge">
<title>10&#45;&gt;9</title>
<path fill="none" stroke="grey" stroke-width="2" d="M1130.43,-287.88C1151.25,-278.35 1177.35,-266.41 1199.48,-256.28"/>
<polygon fill="grey" stroke="grey" stroke-width="2" points="1201.06,-259.41 1208.69,-252.07 1198.14,-253.05 1201.06,-259.41"/>
</g>
<!-- 11&#45;&gt;0 -->
<g id="edge13" class="edge">
<title>11&#45;&gt;0</title>
<path fill="none" stroke="grey" stroke-width="2" d="M453.83,-302.13C410.98,-296.88 358.14,-283.77 322,-252 284.67,-219.19 268.92,-187.48 293,-144 322.21,-91.25 351.93,-94.2 408,-72 487.04,-40.71 586.72,-27.28 639.77,-22.02"/>
<polygon fill="grey" stroke="grey" stroke-width="2" points="640.11,-25.51 649.74,-21.08 639.45,-18.54 640.11,-25.51"/>
</g>
<!-- 13 -->
<g id="node14" class="node">
<title>13</title>
<path fill="none" stroke="#567bd8" stroke-width="2" d="M461,-252C461,-252 343,-252 343,-252 337,-252 331,-246 331,-240 331,-240 331,-228 331,-228 331,-222 337,-216 343,-216 343,-216 461,-216 461,-216 467,-216 473,-222 473,-228 473,-228 473,-240 473,-240 473,-246 467,-252 461,-252"/>
<text text-anchor="middle" x="402" y="-231.5" font-family="sans" font-size="10.00">shift_atac_short_fragments</text>
</g>
<!-- 11&#45;&gt;13 -->
<g id="edge30" class="edge">
<title>11&#45;&gt;13</title>
<path fill="none" stroke="grey" stroke-width="2" d="M495.67,-287.88C479.3,-278.64 458.92,-267.13 441.35,-257.21"/>
<polygon fill="grey" stroke="grey" stroke-width="2" points="442.88,-254.06 432.45,-252.19 439.44,-260.15 442.88,-254.06"/>
</g>
<!-- 14 -->
<g id="node15" class="node">
<title>14</title>
<path fill="none" stroke="#80d856" stroke-width="2" d="M656,-180C656,-180 480,-180 480,-180 474,-180 468,-174 468,-168 468,-168 468,-156 468,-156 468,-150 474,-144 480,-144 480,-144 656,-144 656,-144 662,-144 668,-150 668,-156 668,-156 668,-168 668,-168 668,-174 662,-180 656,-180"/>
<text text-anchor="middle" x="568" y="-159.5" font-family="sans" font-size="10.00">call_lenient_atac_short_fragment_peaks</text>
</g>
<!-- 11&#45;&gt;14 -->
<g id="edge31" class="edge">
<title>11&#45;&gt;14</title>
<path fill="none" stroke="grey" stroke-width="2" d="M528.65,-287.67C531.66,-269.54 537.19,-240.38 545,-216 547.81,-207.21 551.58,-197.89 555.24,-189.56"/>
<polygon fill="grey" stroke="grey" stroke-width="2" points="558.49,-190.88 559.44,-180.33 552.11,-187.99 558.49,-190.88"/>
</g>
<!-- 11&#45;&gt;16 -->
<g id="edge35" class="edge">
<title>11&#45;&gt;16</title>
<path fill="none" stroke="grey" stroke-width="2" d="M551.44,-287.88C564.79,-278.89 581.32,-267.76 595.78,-258.03"/>
<polygon fill="grey" stroke="grey" stroke-width="2" points="598.12,-260.68 604.46,-252.19 594.21,-254.87 598.12,-260.68"/>
</g>
<!-- 12 -->
<g id="node13" class="node">
<title>12</title>
<path fill="none" stroke="#d8a456" stroke-width="2" d="M437.5,-180C437.5,-180 314.5,-180 314.5,-180 308.5,-180 302.5,-174 302.5,-168 302.5,-168 302.5,-156 302.5,-156 302.5,-150 308.5,-144 314.5,-144 314.5,-144 437.5,-144 437.5,-144 443.5,-144 449.5,-150 449.5,-156 449.5,-156 449.5,-168 449.5,-168 449.5,-174 443.5,-180 437.5,-180"/>
<text text-anchor="middle" x="376" y="-159.5" font-family="sans" font-size="10.00">atac_short_fragment_bigwig</text>
</g>
<!-- 12&#45;&gt;0 -->
<g id="edge1" class="edge">
<title>12&#45;&gt;0</title>
<path fill="none" stroke="grey" stroke-width="2" d="M385.98,-143.71C398.67,-123.33 422.51,-89.99 452,-72 511.09,-35.96 592.67,-24.43 639.63,-20.74"/>
<polygon fill="grey" stroke="grey" stroke-width="2" points="639.94,-24.22 649.67,-20.03 639.44,-17.24 639.94,-24.22"/>
</g>
<!-- 15 -->
<g id="node16" class="node">
<title>15</title>
<path fill="none" stroke="#56a9d8" stroke-width="2" d="M618.5,-108C618.5,-108 473.5,-108 473.5,-108 467.5,-108 461.5,-102 461.5,-96 461.5,-96 461.5,-84 461.5,-84 461.5,-78 467.5,-72 473.5,-72 473.5,-72 618.5,-72 618.5,-72 624.5,-72 630.5,-78 630.5,-84 630.5,-84 630.5,-96 630.5,-96 630.5,-102 624.5,-108 618.5,-108"/>
<text text-anchor="middle" x="546" y="-87.5" font-family="sans" font-size="10.00">refine_atac_short_fragment_cpm</text>
</g>
<!-- 12&#45;&gt;15 -->
<g id="edge32" class="edge">
<title>12&#45;&gt;15</title>
<path fill="none" stroke="grey" stroke-width="2" d="M417.59,-143.88C441.03,-134.22 470.5,-122.09 495.3,-111.88"/>
<polygon fill="grey" stroke="grey" stroke-width="2" points="496.63,-115.11 504.55,-108.07 493.97,-108.64 496.63,-115.11"/>
</g>
<!-- 13&#45;&gt;12 -->
<g id="edge29" class="edge">
<title>13&#45;&gt;12</title>
<path fill="none" stroke="grey" stroke-width="2" d="M395.57,-215.7C392.64,-207.81 389.11,-198.3 385.86,-189.55"/>
<polygon fill="grey" stroke="grey" stroke-width="2" points="389.12,-188.26 382.35,-180.1 382.55,-190.7 389.12,-188.26"/>
</g>
<!-- 14&#45;&gt;0 -->
<g id="edge6" class="edge">
<title>14&#45;&gt;0</title>
<path fill="none" stroke="grey" stroke-width="2" d="M597.87,-143.84C611.82,-134.64 627.78,-122.27 639,-108 653.55,-89.5 663.55,-64.61 669.63,-45.85"/>
<polygon fill="grey" stroke="grey" stroke-width="2" points="673.02,-46.72 672.61,-36.14 666.33,-44.67 673.02,-46.72"/>
</g>
<!-- 14&#45;&gt;15 -->
<g id="edge33" class="edge">
<title>14&#45;&gt;15</title>
<path fill="none" stroke="grey" stroke-width="2" d="M562.56,-143.7C560.11,-135.9 557.16,-126.51 554.43,-117.83"/>
<polygon fill="grey" stroke="grey" stroke-width="2" points="557.71,-116.59 551.38,-108.1 551.04,-118.69 557.71,-116.59"/>
</g>
<!-- 15&#45;&gt;0 -->
<g id="edge4" class="edge">
<title>15&#45;&gt;0</title>
<path fill="none" stroke="grey" stroke-width="2" d="M578.05,-71.88C597.01,-61.74 621.09,-48.88 640.74,-38.37"/>
<polygon fill="grey" stroke="grey" stroke-width="2" points="642.54,-41.38 649.71,-33.58 639.24,-35.21 642.54,-41.38"/>
</g>
<!-- 16&#45;&gt;0 -->
<g id="edge2" class="edge">
<title>16&#45;&gt;0</title>
<path fill="none" stroke="grey" stroke-width="2" d="M651.27,-215.7C661.11,-206.31 671.76,-193.8 677,-180 693.84,-135.63 688.34,-79.28 682.73,-46.37"/>
<polygon fill="grey" stroke="grey" stroke-width="2" points="686.1,-45.37 680.85,-36.16 679.22,-46.63 686.1,-45.37"/>
</g>
<!-- 17&#45;&gt;0 -->
<g id="edge8" class="edge">
<title>17&#45;&gt;0</title>
<path fill="none" stroke="grey" stroke-width="2" d="M799.2,-287.96C798.9,-247.25 793.43,-142.48 748,-72 739.27,-58.45 725.78,-47.11 712.9,-38.44"/>
<polygon fill="grey" stroke="grey" stroke-width="2" points="714.46,-35.29 704.15,-32.88 710.71,-41.19 714.46,-35.29"/>
</g>
<!-- 17&#45;&gt;18 -->
<g id="edge38" class="edge">
<title>17&#45;&gt;18</title>
<path fill="none" stroke="grey" stroke-width="2" d="M815.31,-287.7C823.31,-279.22 833.07,-268.86 841.82,-259.58"/>
<polygon fill="grey" stroke="grey" stroke-width="2" points="844.56,-261.78 848.87,-252.1 839.47,-256.98 844.56,-261.78"/>
</g>
<!-- 22 -->
<g id="node23" class="node">
<title>22</title>
<path fill="none" stroke="#56c9d8" stroke-width="2" d="M925.5,-180C925.5,-180 850.5,-180 850.5,-180 844.5,-180 838.5,-174 838.5,-168 838.5,-168 838.5,-156 838.5,-156 838.5,-150 844.5,-144 850.5,-144 850.5,-144 925.5,-144 925.5,-144 931.5,-144 937.5,-150 937.5,-156 937.5,-156 937.5,-168 937.5,-168 937.5,-174 931.5,-180 925.5,-180"/>
<text text-anchor="middle" x="888" y="-159.5" font-family="sans" font-size="10.00">metrics_summary</text>
</g>
<!-- 17&#45;&gt;22 -->
<g id="edge42" class="edge">
<title>17&#45;&gt;22</title>
<path fill="none" stroke="grey" stroke-width="2" d="M802.07,-287.78C806.02,-268.95 814.21,-238.47 829,-216 836.16,-205.13 846.07,-195.06 855.73,-186.68"/>
<polygon fill="grey" stroke="grey" stroke-width="2" points="858.26,-189.14 863.72,-180.06 853.79,-183.74 858.26,-189.14"/>
</g>
<!-- 18&#45;&gt;0 -->
<g id="edge18" class="edge">
<title>18&#45;&gt;0</title>
<path fill="none" stroke="grey" stroke-width="2" d="M852,-215.93C844.67,-205.83 835.67,-192.58 829,-180 804.79,-134.36 821.16,-109.85 786,-72 766.58,-51.09 737.14,-37.46 713.75,-29.27"/>
<polygon fill="grey" stroke="grey" stroke-width="2" points="714.74,-25.91 704.15,-26.08 712.54,-32.55 714.74,-25.91"/>
</g>
<!-- 18&#45;&gt;22 -->
<g id="edge43" class="edge">
<title>18&#45;&gt;22</title>
<path fill="none" stroke="grey" stroke-width="2" d="M870.69,-215.7C873.25,-207.9 876.33,-198.51 879.18,-189.83"/>
<polygon fill="grey" stroke="grey" stroke-width="2" points="882.58,-190.7 882.38,-180.1 875.93,-188.51 882.58,-190.7"/>
</g>
<!-- 18&#45;&gt;24 -->
<g id="edge49" class="edge">
<title>18&#45;&gt;24</title>
<path fill="none" stroke="grey" stroke-width="2" d="M892.2,-219.33C909.26,-209.86 930.97,-196.09 947,-180 965.39,-161.54 980.91,-136.17 991.1,-117.24"/>
<polygon fill="grey" stroke="grey" stroke-width="2" points="994.26,-118.75 995.79,-108.26 988.05,-115.51 994.26,-118.75"/>
</g>
<!-- 19 -->
<g id="node20" class="node">
<title>19</title>
<path fill="none" stroke="#d8cb56" stroke-width="2" d="M1305.5,-108C1305.5,-108 1242.5,-108 1242.5,-108 1236.5,-108 1230.5,-102 1230.5,-96 1230.5,-96 1230.5,-84 1230.5,-84 1230.5,-78 1236.5,-72 1242.5,-72 1242.5,-72 1305.5,-72 1305.5,-72 1311.5,-72 1317.5,-78 1317.5,-84 1317.5,-84 1317.5,-96 1317.5,-96 1317.5,-102 1311.5,-108 1305.5,-108"/>
<text text-anchor="middle" x="1274" y="-87.5" font-family="sans" font-size="10.00">atac_tss_profile</text>
</g>
<!-- 19&#45;&gt;0 -->
<g id="edge9" class="edge">
<title>19&#45;&gt;0</title>
<path fill="none" stroke="grey" stroke-width="2" d="M1230.19,-75.22C1225.43,-74.01 1220.64,-72.9 1216,-72 1029.73,-35.87 802.2,-23.77 714.21,-20.26"/>
<polygon fill="grey" stroke="grey" stroke-width="2" points="714.31,-16.76 704.18,-19.88 714.04,-23.76 714.31,-16.76"/>
</g>
<!-- 20&#45;&gt;19 -->
<g id="edge39" class="edge">
<title>20&#45;&gt;19</title>
<path fill="none" stroke="grey" stroke-width="2" d="M1274,-143.7C1274,-135.98 1274,-126.71 1274,-118.11"/>
<polygon fill="grey" stroke="grey" stroke-width="2" points="1277.5,-118.1 1274,-108.1 1270.5,-118.1 1277.5,-118.1"/>
</g>
<!-- 21&#45;&gt;0 -->
<g id="edge14" class="edge">
<title>21&#45;&gt;0</title>
<path fill="none" stroke="grey" stroke-width="2" d="M297.53,-287.96C294.38,-277.64 290.55,-264.17 288,-252 271.32,-172.55 252,-117.84 319,-72 370.67,-36.64 558.87,-24.22 639.7,-20.44"/>
<polygon fill="grey" stroke="grey" stroke-width="2" points="640.08,-23.93 649.92,-19.99 639.77,-16.94 640.08,-23.93"/>
</g>
<!-- 22&#45;&gt;0 -->
<g id="edge15" class="edge">
<title>22&#45;&gt;0</title>
<path fill="none" stroke="grey" stroke-width="2" d="M879.74,-143.86C869.34,-123.96 849.67,-91.38 824,-72 791.32,-47.33 746.08,-33.32 714.44,-25.99"/>
<polygon fill="grey" stroke="grey" stroke-width="2" points="714.79,-22.48 704.27,-23.75 713.29,-29.32 714.79,-22.48"/>
</g>
<!-- 22&#45;&gt;24 -->
<g id="edge51" class="edge">
<title>22&#45;&gt;24</title>
<path fill="none" stroke="grey" stroke-width="2" d="M916.38,-143.88C931.88,-134.52 951.25,-122.83 967.83,-112.83"/>
<polygon fill="grey" stroke="grey" stroke-width="2" points="969.96,-115.63 976.71,-107.47 966.34,-109.64 969.96,-115.63"/>
</g>
<!-- 23&#45;&gt;22 -->
<g id="edge44" class="edge">
<title>23&#45;&gt;22</title>
<path fill="none" stroke="grey" stroke-width="2" d="M938.44,-215.7C930.32,-207.22 920.41,-196.86 911.53,-187.58"/>
<polygon fill="grey" stroke="grey" stroke-width="2" points="913.81,-184.91 904.37,-180.1 908.76,-189.75 913.81,-184.91"/>
</g>
<!-- 23&#45;&gt;24 -->
<g id="edge47" class="edge">
<title>23&#45;&gt;24</title>
<path fill="none" stroke="grey" stroke-width="2" d="M964.13,-215.67C969.26,-205.47 975.51,-192.22 980,-180 987.52,-159.53 993.83,-135.64 998.1,-117.77"/>
<polygon fill="grey" stroke="grey" stroke-width="2" points="1001.51,-118.54 1000.36,-108.01 994.69,-116.96 1001.51,-118.54"/>
</g>
<!-- 24&#45;&gt;0 -->
<g id="edge5" class="edge">
<title>24&#45;&gt;0</title>
<path fill="none" stroke="grey" stroke-width="2" d="M976.96,-83.21C918.57,-70.71 780.6,-41.18 714.11,-26.94"/>
<polygon fill="grey" stroke="grey" stroke-width="2" points="714.58,-23.47 704.07,-24.79 713.12,-30.31 714.58,-23.47"/>
</g>
<!-- 25 -->
<g id="node26" class="node">
<title>25</title>
<path fill="none" stroke="#56d882" stroke-width="2" d="M1085.5,-180C1085.5,-180 1044.5,-180 1044.5,-180 1038.5,-180 1032.5,-174 1032.5,-168 1032.5,-168 1032.5,-156 1032.5,-156 1032.5,-150 1038.5,-144 1044.5,-144 1044.5,-144 1085.5,-144 1085.5,-144 1091.5,-144 1097.5,-150 1097.5,-156 1097.5,-156 1097.5,-168 1097.5,-168 1097.5,-174 1091.5,-180 1085.5,-180"/>
<text text-anchor="middle" x="1065" y="-159.5" font-family="sans" font-size="10.00">fastqc_raw</text>
</g>
<!-- 25&#45;&gt;24 -->
<g id="edge50" class="edge">
<title>25&#45;&gt;24</title>
<path fill="none" stroke="grey" stroke-width="2" d="M1049.92,-143.7C1042.61,-135.3 1033.69,-125.07 1025.66,-115.86"/>
<polygon fill="grey" stroke="grey" stroke-width="2" points="1028.11,-113.34 1018.91,-108.1 1022.84,-117.94 1028.11,-113.34"/>
</g>
<!-- 26&#45;&gt;24 -->
<g id="edge46" class="edge">
<title>26&#45;&gt;24</title>
<path fill="none" stroke="grey" stroke-width="2" d="M1021.82,-431.55C1022.03,-401.42 1024.71,-338.05 1042,-288 1064.93,-221.63 1143.75,-203.83 1107,-144 1090.15,-116.56 1071.17,-122.75 1040.61,-109.91"/>
<polygon fill="grey" stroke="grey" stroke-width="2" points="1041.75,-106.58 1031.22,-105.5 1038.78,-112.92 1041.75,-106.58"/>
</g>
<!-- 27 -->
<g id="node28" class="node">
<title>27</title>
<path fill="none" stroke="#569ad8" stroke-width="2" d="M1472.5,-108C1472.5,-108 1347.5,-108 1347.5,-108 1341.5,-108 1335.5,-102 1335.5,-96 1335.5,-96 1335.5,-84 1335.5,-84 1335.5,-78 1341.5,-72 1347.5,-72 1347.5,-72 1472.5,-72 1472.5,-72 1478.5,-72 1484.5,-78 1484.5,-84 1484.5,-84 1484.5,-96 1484.5,-96 1484.5,-102 1478.5,-108 1472.5,-108"/>
<text text-anchor="middle" x="1410" y="-87.5" font-family="sans" font-size="10.00">resolved_config_provenance</text>
</g>
<!-- 27&#45;&gt;0 -->
<g id="edge7" class="edge">
<title>27&#45;&gt;0</title>
<path fill="none" stroke="grey" stroke-width="2" d="M1335.42,-73.28C1332.58,-72.82 1329.77,-72.39 1327,-72 1095.3,-38.95 813.96,-24.72 714.23,-20.46"/>
<polygon fill="grey" stroke="grey" stroke-width="2" points="714.2,-16.96 704.06,-20.04 713.91,-23.95 714.2,-16.96"/>
</g>
</g>
</svg>
