<?xml version="1.0" encoding="UTF-8" standalone="no"?>
<!DOCTYPE svg PUBLIC "-//W3C//DTD SVG 1.1//EN"
 "http://www.w3.org/Graphics/SVG/1.1/DTD/svg11.dtd">
<!-- Generated by graphviz version 13.1.2 (20250809.0930)
 -->
<!-- Title: snakemake_dag Pages: 1 -->
<svg width="1484pt" height="620pt"
 viewBox="0.00 0.00 1484.00 620.00" xmlns="http://www.w3.org/2000/svg" xmlns:xlink="http://www.w3.org/1999/xlink">
<g id="graph0" class="graph" transform="scale(1 1) rotate(0) translate(4 616)">
<title>snakemake_dag</title>
<polygon fill="white" stroke="none" points="-4,4 -4,-616 1480,-616 1480,4 -4,4"/>
<!-- 0 -->
<g id="node1" class="node">
<title>0</title>
<path fill="none" stroke="#d87556" stroke-width="2" d="M690,-36C690,-36 660,-36 660,-36 654,-36 648,-30 648,-24 648,-24 648,-12 648,-12 648,-6 654,0 660,0 660,0 690,0 690,0 696,0 702,-6 702,-12 702,-12 702,-24 702,-24 702,-30 696,-36 690,-36"/>
<text xml:space="preserve" text-anchor="middle" x="675" y="-15.62" font-family="sans" font-size="10.00">all</text>
</g>
<!-- 1 -->
<g id="node2" class="node">
<title>1</title>
<path fill="none" stroke="#afd856" stroke-width="2" d="M395.38,-612C395.38,-612 336.62,-612 336.62,-612 330.62,-612 324.62,-606 324.62,-600 324.62,-600 324.62,-588 324.62,-588 324.62,-582 330.62,-576 336.62,-576 336.62,-576 395.38,-576 395.38,-576 401.38,-576 407.38,-582 407.38,-588 407.38,-588 407.38,-600 407.38,-600 407.38,-606 401.38,-612 395.38,-612"/>
<text xml:space="preserve" text-anchor="middle" x="366" y="-591.62" font-family="sans" font-size="10.00">bowtie2_index</text>
</g>
<!-- 1&#45;&gt;0 -->
<g id="edge4" class="edge">
<title>1&#45;&gt;0</title>
<path fill="none" stroke="grey" stroke-width="2" d="M323.66,-585.83C227.32,-568.33 0,-519.75 0,-451 0,-451 0,-451 0,-161 0,-114.96 13.98,-96.43 53,-72 102.18,-41.21 504.42,-24.84 634.55,-20.32"/>
<polygon fill="grey" stroke="grey" stroke-width="2" points="634.41,-23.82 644.29,-19.98 634.17,-16.83 634.41,-23.82"/>
</g>
<!-- 6 -->
<g id="node7" class="node">
<title>6</title>
<path fill="none" stroke="#d85656" stroke-width="2" d="M750.88,-540C750.88,-540 713.12,-540 713.12,-540 707.12,-540 701.12,-534 701.12,-528 701.12,-528 701.12,-516 701.12,-516 701.12,-510 707.12,-504 713.12,-504 713.12,-504 750.88,-504 750.88,-504 756.88,-504 762.88,-510 762.88,-516 762.88,-516 762.88,-528 762.88,-528 762.88,-534 756.88,-540 750.88,-540"/>
<text xml:space="preserve" text-anchor="middle" x="732" y="-519.62" font-family="sans" font-size="10.00">align_lane</text>
</g>
<!-- 1&#45;&gt;6 -->
<g id="edge23" class="edge">
<title>1&#45;&gt;6</title>
<path fill="none" stroke="grey" stroke-width="2" d="M408.34,-584.9C478.14,-571.55 616.67,-545.06 687.71,-531.47"/>
<polygon fill="grey" stroke="grey" stroke-width="2" points="688.03,-534.97 697.19,-529.66 686.71,-528.1 688.03,-534.97"/>
</g>
<!-- 2 -->
<g id="node3" class="node">
<title>2</title>
<path fill="none" stroke="#56d86b" stroke-width="2" d="M167.88,-252C167.88,-252 124.12,-252 124.12,-252 118.12,-252 112.12,-246 112.12,-240 112.12,-240 112.12,-228 112.12,-228 112.12,-222 118.12,-216 124.12,-216 124.12,-216 167.88,-216 167.88,-216 173.88,-216 179.88,-222 179.88,-228 179.88,-228 179.88,-240 179.88,-240 179.88,-246 173.88,-252 167.88,-252"/>
<text xml:space="preserve" text-anchor="middle" x="146" y="-231.62" font-family="sans" font-size="10.00">fasta_index</text>
</g>
<!-- 2&#45;&gt;0 -->
<g id="edge18" class="edge">
<title>2&#45;&gt;0</title>
<path fill="none" stroke="grey" stroke-width="2" d="M157.68,-215.24C164.08,-205.13 171.93,-192.1 178,-180 201.24,-133.67 180.74,-103.38 222,-72 286.26,-23.13 535.55,-18.49 634.35,-18.62"/>
<polygon fill="grey" stroke="grey" stroke-width="2" points="634.21,-22.12 644.23,-18.66 634.24,-15.12 634.21,-22.12"/>
</g>
<!-- 3 -->
<g id="node4" class="node">
<title>3</title>
<path fill="none" stroke="#56d85b" stroke-width="2" d="M157.5,-180C157.5,-180 78.5,-180 78.5,-180 72.5,-180 66.5,-174 66.5,-168 66.5,-168 66.5,-156 66.5,-156 66.5,-150 72.5,-144 78.5,-144 78.5,-144 157.5,-144 157.5,-144 163.5,-144 169.5,-150 169.5,-156 169.5,-156 169.5,-168 169.5,-168 169.5,-174 163.5,-180 157.5,-180"/>
<text xml:space="preserve" text-anchor="middle" x="118" y="-159.62" font-family="sans" font-size="10.00">chromosome_sizes</text>
</g>
<!-- 2&#45;&gt;3 -->
<g id="edge19" class="edge">
<title>2&#45;&gt;3</title>
<path fill="none" stroke="grey" stroke-width="2" d="M138.93,-215.34C136.2,-208.51 133,-200.5 129.93,-192.83"/>
<polygon fill="grey" stroke="grey" stroke-width="2" points="133.25,-191.7 126.28,-183.71 126.75,-194.3 133.25,-191.7"/>
</g>
<!-- 3&#45;&gt;0 -->
<g id="edge1" class="edge">
<title>3&#45;&gt;0</title>
<path fill="none" stroke="grey" stroke-width="2" d="M125.73,-143.12C135.83,-122.17 155.62,-88.25 184,-72 260.45,-28.21 530.61,-20.57 634.18,-19.26"/>
<polygon fill="grey" stroke="grey" stroke-width="2" points="634.1,-22.76 644.06,-19.15 634.02,-15.76 634.1,-22.76"/>
</g>
<!-- 8 -->
<g id="node9" class="node">
<title>8</title>
<path fill="none" stroke="#bed856" stroke-width="2" d="M120,-108C120,-108 74,-108 74,-108 68,-108 62,-102 62,-96 62,-96 62,-84 62,-84 62,-78 68,-72 74,-72 74,-72 120,-72 120,-72 126,-72 132,-78 132,-84 132,-84 132,-96 132,-96 132,-102 126,-108 120,-108"/>
<text xml:space="preserve" text-anchor="middle" x="97" y="-87.62" font-family="sans" font-size="10.00">bigwig_cpm</text>
</g>
<!-- 3&#45;&gt;8 -->
<g id="edge24" class="edge">
<title>3&#45;&gt;8</title>
<path fill="none" stroke="grey" stroke-width="2" d="M112.7,-143.34C110.68,-136.59 108.31,-128.69 106.03,-121.11"/>
<polygon fill="grey" stroke="grey" stroke-width="2" points="109.47,-120.37 103.24,-111.8 102.76,-122.39 109.47,-120.37"/>
</g>
<!-- 4 -->
<g id="node5" class="node">
<title>4</title>
<path fill="none" stroke="#56d8a9" stroke-width="2" d="M751.62,-396C751.62,-396 712.38,-396 712.38,-396 706.38,-396 700.38,-390 700.38,-384 700.38,-384 700.38,-372 700.38,-372 700.38,-366 706.38,-360 712.38,-360 712.38,-360 751.62,-360 751.62,-360 757.62,-360 763.62,-366 763.62,-372 763.62,-372 763.62,-384 763.62,-384 763.62,-390 757.62,-396 751.62,-396"/>
<text xml:space="preserve" text-anchor="middle" x="732" y="-375.62" font-family="sans" font-size="10.00">filter_bam</text>
</g>
<!-- 4&#45;&gt;0 -->
<g id="edge2" class="edge">
<title>4&#45;&gt;0</title>
<path fill="none" stroke="grey" stroke-width="2" d="M732,-359.07C732,-332.13 732,-279.62 732,-235 732,-235 732,-235 732,-161 732,-119.39 710.66,-75.54 694.1,-47.77"/>
<polygon fill="grey" stroke="grey" stroke-width="2" points="697.2,-46.14 688.96,-39.48 691.25,-49.82 697.2,-46.14"/>
</g>
<!-- 4&#45;&gt;8 -->
<g id="edge25" class="edge">
<title>4&#45;&gt;8</title>
<path fill="none" stroke="grey" stroke-width="2" d="M699.49,-375.39C602.23,-370.3 314.75,-353.11 226,-324 132.24,-293.24 84.67,-274.72 57,-180 52.51,-164.64 51.92,-159.17 57,-144 59.99,-135.08 65.13,-126.47 70.75,-118.87"/>
<polygon fill="grey" stroke="grey" stroke-width="2" points="73.37,-121.2 76.94,-111.23 67.93,-116.8 73.37,-121.2"/>
</g>
<!-- 10 -->
<g id="node11" class="node">
<title>10</title>
<path fill="none" stroke="#d89556" stroke-width="2" d="M1118.12,-324C1118.12,-324 1057.88,-324 1057.88,-324 1051.88,-324 1045.88,-318 1045.88,-312 1045.88,-312 1045.88,-300 1045.88,-300 1045.88,-294 1051.88,-288 1057.88,-288 1057.88,-288 1118.12,-288 1118.12,-288 1124.12,-288 1130.12,-294 1130.12,-300 1130.12,-300 1130.12,-312 1130.12,-312 1130.12,-318 1124.12,-324 1118.12,-324"/>
<text xml:space="preserve" text-anchor="middle" x="1088" y="-303.62" font-family="sans" font-size="10.00">atac_shift_bam</text>
</g>
<!-- 4&#45;&gt;10 -->
<g id="edge27" class="edge">
<title>4&#45;&gt;10</title>
<path fill="none" stroke="grey" stroke-width="2" d="M764.54,-370.6C825.46,-358.62 957.38,-332.68 1032.57,-317.9"/>
<polygon fill="grey" stroke="grey" stroke-width="2" points="1032.92,-321.4 1042.06,-316.03 1031.57,-314.53 1032.92,-321.4"/>
</g>
<!-- 11 -->
<g id="node12" class="node">
<title>11</title>
<path fill="none" stroke="#56d89a" stroke-width="2" d="M583.75,-324C583.75,-324 464.25,-324 464.25,-324 458.25,-324 452.25,-318 452.25,-312 452.25,-312 452.25,-300 452.25,-300 452.25,-294 458.25,-288 464.25,-288 464.25,-288 583.75,-288 583.75,-288 589.75,-288 595.75,-294 595.75,-300 595.75,-300 595.75,-312 595.75,-312 595.75,-318 589.75,-324 583.75,-324"/>
<text xml:space="preserve" text-anchor="middle" x="524" y="-303.62" font-family="sans" font-size="10.00">filter_atac_short_fragments</text>
</g>
<!-- 4&#45;&gt;11 -->
<g id="edge28" class="edge">
<title>4&#45;&gt;11</title>
<path fill="none" stroke="grey" stroke-width="2" d="M699.5,-366.06C670.14,-356.18 626.05,-341.34 589.4,-329.01"/>
<polygon fill="grey" stroke="grey" stroke-width="2" points="590.76,-325.77 580.16,-325.9 588.53,-332.41 590.76,-325.77"/>
</g>
<!-- 16 -->
<g id="node17" class="node">
<title>16</title>
<path fill="none" stroke="#d8c356" stroke-width="2" d="M691.5,-252C691.5,-252 564.5,-252 564.5,-252 558.5,-252 552.5,-246 552.5,-240 552.5,-240 552.5,-228 552.5,-228 552.5,-222 558.5,-216 564.5,-216 564.5,-216 691.5,-216 691.5,-216 697.5,-216 703.5,-222 703.5,-228 703.5,-228 703.5,-240 703.5,-240 703.5,-246 697.5,-252 691.5,-252"/>
<text xml:space="preserve" text-anchor="middle" x="628" y="-231.62" font-family="sans" font-size="10.00">atac_short_fragment_metrics</text>
</g>
<!-- 4&#45;&gt;16 -->
<g id="edge35" class="edge">
<title>4&#45;&gt;16</title>
<path fill="none" stroke="grey" stroke-width="2" d="M718.83,-359.02C701.17,-334.9 669.62,-291.83 648.75,-263.34"/>
<polygon fill="grey" stroke="grey" stroke-width="2" points="651.59,-261.28 642.85,-255.28 645.94,-265.42 651.59,-261.28"/>
</g>
<!-- 17 -->
<g id="node18" class="node">
<title>17</title>
<path fill="none" stroke="#56d8c9" stroke-width="2" d="M816.25,-324C816.25,-324 777.75,-324 777.75,-324 771.75,-324 765.75,-318 765.75,-312 765.75,-312 765.75,-300 765.75,-300 765.75,-294 771.75,-288 777.75,-288 777.75,-288 816.25,-288 816.25,-288 822.25,-288 828.25,-294 828.25,-300 828.25,-300 828.25,-312 828.25,-312 828.25,-318 822.25,-324 816.25,-324"/>
<text xml:space="preserve" text-anchor="middle" x="797" y="-303.62" font-family="sans" font-size="10.00">hmmratac</text>
</g>
<!-- 4&#45;&gt;17 -->
<g id="edge36" class="edge">
<title>4&#45;&gt;17</title>
<path fill="none" stroke="grey" stroke-width="2" d="M748.4,-359.34C755.43,-351.77 763.8,-342.75 771.6,-334.35"/>
<polygon fill="grey" stroke="grey" stroke-width="2" points="774.08,-336.83 778.32,-327.12 768.95,-332.07 774.08,-336.83"/>
</g>
<!-- 18 -->
<g id="node19" class="node">
<title>18</title>
<path fill="none" stroke="#56d8b9" stroke-width="2" d="M878,-252C878,-252 848,-252 848,-252 842,-252 836,-246 836,-240 836,-240 836,-228 836,-228 836,-222 842,-216 848,-216 848,-216 878,-216 878,-216 884,-216 890,-222 890,-228 890,-228 890,-240 890,-240 890,-246 884,-252 878,-252"/>
<text xml:space="preserve" text-anchor="middle" x="863" y="-231.62" font-family="sans" font-size="10.00">frip</text>
</g>
<!-- 4&#45;&gt;18 -->
<g id="edge38" class="edge">
<title>4&#45;&gt;18</title>
<path fill="none" stroke="grey" stroke-width="2" d="M764.4,-368.26C787.75,-360.36 818.33,-346.45 837,-324 850.68,-307.55 857.17,-284.19 860.24,-265.52"/>
<polygon fill="grey" stroke="grey" stroke-width="2" points="863.7,-266.02 861.55,-255.65 856.76,-265.1 863.7,-266.02"/>
</g>
<!-- 21 -->
<g id="node22" class="node">
<title>21</title>
<path fill="none" stroke="#d88556" stroke-width="2" d="M356.88,-324C356.88,-324 247.12,-324 247.12,-324 241.12,-324 235.12,-318 235.12,-312 235.12,-312 235.12,-300 235.12,-300 235.12,-294 241.12,-288 247.12,-288 247.12,-288 356.88,-288 356.88,-288 362.88,-288 368.88,-294 368.88,-300 368.88,-300 368.88,-312 368.88,-312 368.88,-318 362.88,-324 356.88,-324"/>
<text xml:space="preserve" text-anchor="middle" x="302" y="-303.62" font-family="sans" font-size="10.00">atac_fragment_histogram</text>
</g>
<!-- 4&#45;&gt;21 -->
<g id="edge41" class="edge">
<title>4&#45;&gt;21</title>
<path fill="none" stroke="grey" stroke-width="2" d="M699.68,-371.74C632.92,-360.87 478.08,-335.66 382.5,-320.1"/>
<polygon fill="grey" stroke="grey" stroke-width="2" points="383.13,-316.66 372.69,-318.51 382,-323.57 383.13,-316.66"/>
</g>
<!-- 23 -->
<g id="node24" class="node">
<title>23</title>
<path fill="none" stroke="#d86656" stroke-width="2" d="M984.38,-252C984.38,-252 919.62,-252 919.62,-252 913.62,-252 907.62,-246 907.62,-240 907.62,-240 907.62,-228 907.62,-228 907.62,-222 913.62,-216 919.62,-216 919.62,-216 984.38,-216 984.38,-216 990.38,-216 996.38,-222 996.38,-228 996.38,-228 996.38,-240 996.38,-240 996.38,-246 990.38,-252 984.38,-252"/>
<text xml:space="preserve" text-anchor="middle" x="952" y="-231.62" font-family="sans" font-size="10.00">alignment_stats</text>
</g>
<!-- 4&#45;&gt;23 -->
<g id="edge45" class="edge">
<title>4&#45;&gt;23</title>
<path fill="none" stroke="grey" stroke-width="2" d="M764.42,-367.36C791.33,-358.49 829.94,-343.73 860,-324 886.14,-306.85 911.34,-281.66 928.74,-262.46"/>
<polygon fill="grey" stroke="grey" stroke-width="2" points="931.3,-264.84 935.31,-255.03 926.06,-260.2 931.3,-264.84"/>
</g>
<!-- 5 -->
<g id="node6" class="node">
<title>5</title>
<path fill="none" stroke="#56d0d8" stroke-width="2" d="M794,-468C794,-468 670,-468 670,-468 664,-468 658,-462 658,-456 658,-456 658,-444 658,-444 658,-438 664,-432 670,-432 670,-432 794,-432 794,-432 800,-432 806,-438 806,-444 806,-444 806,-456 806,-456 806,-462 800,-468 794,-468"/>
<text xml:space="preserve" text-anchor="middle" x="732" y="-447.62" font-family="sans" font-size="10.00">merge_and_mark_duplicates</text>
</g>
<!-- 5&#45;&gt;4 -->
<g id="edge20" class="edge">
<title>5&#45;&gt;4</title>
<path fill="none" stroke="grey" stroke-width="2" d="M732,-431.34C732,-424.75 732,-417.08 732,-409.67"/>
<polygon fill="grey" stroke="grey" stroke-width="2" points="735.5,-409.93 732,-399.93 728.5,-409.93 735.5,-409.93"/>
</g>
<!-- 6&#45;&gt;5 -->
<g id="edge21" class="edge">
<title>6&#45;&gt;5</title>
<path fill="none" stroke="grey" stroke-width="2" d="M732,-503.34C732,-496.75 732,-489.08 732,-481.67"/>
<polygon fill="grey" stroke="grey" stroke-width="2" points="735.5,-481.93 732,-471.93 728.5,-481.93 735.5,-481.93"/>
</g>
<!-- 7 -->
<g id="node8" class="node">
<title>7</title>
<path fill="none" stroke="#5673d8" stroke-width="2" d="M1033,-612C1033,-612 1003,-612 1003,-612 997,-612 991,-606 991,-600 991,-600 991,-588 991,-588 991,-582 997,-576 1003,-576 1003,-576 1033,-576 1033,-576 1039,-576 1045,-582 1045,-588 1045,-588 1045,-600 1045,-600 1045,-606 1039,-612 1033,-612"/>
<text xml:space="preserve" text-anchor="middle" x="1018" y="-591.62" font-family="sans" font-size="10.00">trim_pe</text>
</g>
<!-- 7&#45;&gt;6 -->
<g id="edge22" class="edge">
<title>7&#45;&gt;6</title>
<path fill="none" stroke="grey" stroke-width="2" d="M990.06,-586.16C940.17,-573.95 835.42,-548.31 775.86,-533.73"/>
<polygon fill="grey" stroke="grey" stroke-width="2" points="777,-530.41 766.46,-531.43 775.34,-537.21 777,-530.41"/>
</g>
<!-- 24 -->
<g id="node25" class="node">
<title>24</title>
<path fill="none" stroke="#56b1d8" stroke-width="2" d="M1015,-108C1015,-108 985,-108 985,-108 979,-108 973,-102 973,-96 973,-96 973,-84 973,-84 973,-78 979,-72 985,-72 985,-72 1015,-72 1015,-72 1021,-72 1027,-78 1027,-84 1027,-84 1027,-96 1027,-96 1027,-102 1021,-108 1015,-108"/>
<text xml:space="preserve" text-anchor="middle" x="1000" y="-87.62" font-family="sans" font-size="10.00">multiqc</text>
</g>
<!-- 7&#45;&gt;24 -->
<g id="edge46" class="edge">
<title>7&#45;&gt;24</title>
<path fill="none" stroke="grey" stroke-width="2" d="M1045.99,-580.23C1086.85,-559.45 1158,-514.18 1158,-451 1158,-451 1158,-451 1158,-233 1158,-189.99 1150.64,-174.18 1120,-144 1092.83,-117.24 1074.2,-124.07 1039.65,-111.01"/>
<polygon fill="grey" stroke="grey" stroke-width="2" points="1041.2,-107.86 1030.63,-107.18 1038.47,-114.31 1041.2,-107.86"/>
</g>
<!-- 26 -->
<g id="node27" class="node">
<title>26</title>
<path fill="none" stroke="#56d88a" stroke-width="2" d="M1050.38,-468C1050.38,-468 985.62,-468 985.62,-468 979.62,-468 973.62,-462 973.62,-456 973.62,-456 973.62,-444 973.62,-444 973.62,-438 979.62,-432 985.62,-432 985.62,-432 1050.38,-432 1050.38,-432 1056.38,-432 1062.38,-438 1062.38,-444 1062.38,-444 1062.38,-456 1062.38,-456 1062.38,-462 1056.38,-468 1050.38,-468"/>
<text xml:space="preserve" text-anchor="middle" x="1018" y="-447.62" font-family="sans" font-size="10.00">fastqc_trimmed</text>
</g>
<!-- 7&#45;&gt;26 -->
<g id="edge52" class="edge">
<title>7&#45;&gt;26</title>
<path fill="none" stroke="grey" stroke-width="2" d="M1018,-575.02C1018,-551.54 1018,-510.11 1018,-481.64"/>
<polygon fill="grey" stroke="grey" stroke-width="2" points="1021.5,-481.87 1018,-471.87 1014.5,-481.87 1021.5,-481.87"/>
</g>
<!-- 8&#45;&gt;0 -->
<g id="edge6" class="edge">
<title>8&#45;&gt;0</title>
<path fill="none" stroke="grey" stroke-width="2" d="M132.85,-75.49C137.24,-74.16 141.69,-72.95 146,-72 325,-32.55 544.63,-22.41 634.13,-19.85"/>
<polygon fill="grey" stroke="grey" stroke-width="2" points="634.17,-23.35 644.08,-19.59 633.99,-16.35 634.17,-23.35"/>
</g>
<!-- 9 -->
<g id="node10" class="node">
<title>9</title>
<path fill="none" stroke="#d8a456" stroke-width="2" d="M1280,-252C1280,-252 1198,-252 1198,-252 1192,-252 1186,-246 1186,-240 1186,-240 1186,-228 1186,-228 1186,-222 1192,-216 1198,-216 1198,-216 1280,-216 1280,-216 1286,-216 1292,-222 1292,-228 1292,-228 1292,-240 1292,-240 1292,-246 1286,-252 1280,-252"/>
<text xml:space="preserve" text-anchor="middle" x="1239" y="-231.62" font-family="sans" font-size="10.00">atac_shifted_bigwig</text>
</g>
<!-- 9&#45;&gt;0 -->
<g id="edge16" class="edge">
<title>9&#45;&gt;0</title>
<path fill="none" stroke="grey" stroke-width="2" d="M1228.82,-215.11C1217.09,-195.7 1196.28,-164.71 1172,-144 1119.96,-99.62 1101,-93.28 1036,-72 923.92,-35.31 783.93,-23.96 715.91,-20.49"/>
<polygon fill="grey" stroke="grey" stroke-width="2" points="716.08,-16.99 705.93,-20.02 715.75,-23.99 716.08,-16.99"/>
</g>
<!-- 20 -->
<g id="node21" class="node">
<title>20</title>
<path fill="none" stroke="#d8d356" stroke-width="2" d="M1298.25,-180C1298.25,-180 1235.75,-180 1235.75,-180 1229.75,-180 1223.75,-174 1223.75,-168 1223.75,-168 1223.75,-156 1223.75,-156 1223.75,-150 1229.75,-144 1235.75,-144 1235.75,-144 1298.25,-144 1298.25,-144 1304.25,-144 1310.25,-150 1310.25,-156 1310.25,-156 1310.25,-168 1310.25,-168 1310.25,-174 1304.25,-180 1298.25,-180"/>
<text xml:space="preserve" text-anchor="middle" x="1267" y="-159.62" font-family="sans" font-size="10.00">atac_tss_matrix</text>
</g>
<!-- 9&#45;&gt;20 -->
<g id="edge40" class="edge">
<title>9&#45;&gt;20</title>
<path fill="none" stroke="grey" stroke-width="2" d="M1246.07,-215.34C1248.8,-208.51 1252,-200.5 1255.07,-192.83"/>
<polygon fill="grey" stroke="grey" stroke-width="2" points="1258.25,-194.3 1258.72,-183.71 1251.75,-191.7 1258.25,-194.3"/>
</g>
<!-- 10&#45;&gt;9 -->
<g id="edge26" class="edge">
<title>10&#45;&gt;9</title>
<path fill="none" stroke="grey" stroke-width="2" d="M1126.49,-287.15C1145.41,-278.38 1168.45,-267.71 1188.74,-258.3"/>
<polygon fill="grey" stroke="grey" stroke-width="2" points="1189.97,-261.59 1197.57,-254.21 1187.02,-255.24 1189.97,-261.59"/>
</g>
<!-- 11&#45;&gt;0 -->
<g id="edge17" class="edge">
<title>11&#45;&gt;0</title>
<path fill="none" stroke="grey" stroke-width="2" d="M451.55,-302.43C408.61,-297.3 355.76,-284.2 320,-252 283.23,-218.89 269.12,-187.33 293,-144 321.93,-91.52 351.33,-94.19 407,-72 483.97,-41.32 580.69,-27.83 634.36,-22.36"/>
<polygon fill="grey" stroke="grey" stroke-width="2" points="634.41,-25.87 644.03,-21.43 633.74,-18.9 634.41,-25.87"/>
</g>
<!-- 13 -->
<g id="node14" class="node">
<title>13</title>
<path fill="none" stroke="#5682d8" stroke-width="2" d="M458.62,-252C458.62,-252 341.38,-252 341.38,-252 335.38,-252 329.38,-246 329.38,-240 329.38,-240 329.38,-228 329.38,-228 329.38,-222 335.38,-216 341.38,-216 341.38,-216 458.62,-216 458.62,-216 464.62,-216 470.62,-222 470.62,-228 470.62,-228 470.62,-240 470.62,-240 470.62,-246 464.62,-252 458.62,-252"/>
<text xml:space="preserve" text-anchor="middle" x="400" y="-231.62" font-family="sans" font-size="10.00">shift_atac_short_fragments</text>
</g>
<!-- 11&#45;&gt;13 -->
<g id="edge30" class="edge">
<title>11&#45;&gt;13</title>
<path fill="none" stroke="grey" stroke-width="2" d="M492.39,-287.15C477.23,-278.6 458.85,-268.22 442.49,-258.99"/>
<polygon fill="grey" stroke="grey" stroke-width="2" points="444.62,-256.17 434.19,-254.3 441.18,-262.26 444.62,-256.17"/>
</g>
<!-- 14 -->
<g id="node15" class="node">
<title>14</title>
<path fill="none" stroke="#9fd856" stroke-width="2" d="M653.5,-180C653.5,-180 478.5,-180 478.5,-180 472.5,-180 466.5,-174 466.5,-168 466.5,-168 466.5,-156 466.5,-156 466.5,-150 472.5,-144 478.5,-144 478.5,-144 653.5,-144 653.5,-144 659.5,-144 665.5,-150 665.5,-156 665.5,-156 665.5,-168 665.5,-168 665.5,-174 659.5,-180 653.5,-180"/>
<text xml:space="preserve" text-anchor="middle" x="566" y="-159.62" font-family="sans" font-size="10.00">call_lenient_atac_short_fragment_peaks</text>
</g>
<!-- 11&#45;&gt;14 -->
<g id="edge31" class="edge">
<title>11&#45;&gt;14</title>
<path fill="none" stroke="grey" stroke-width="2" d="M526.7,-287.34C529.73,-269.18 535.24,-240.23 543,-216 545.47,-208.29 548.67,-200.17 551.89,-192.67"/>
<polygon fill="grey" stroke="grey" stroke-width="2" points="555.07,-194.13 555.97,-183.57 548.69,-191.26 555.07,-194.13"/>
</g>
<!-- 11&#45;&gt;16 -->
<g id="edge34" class="edge">
<title>11&#45;&gt;16</title>
<path fill="none" stroke="grey" stroke-width="2" d="M550.51,-287.15C562.74,-278.93 577.46,-269.02 590.77,-260.06"/>
<polygon fill="grey" stroke="grey" stroke-width="2" points="592.68,-262.99 599.02,-254.5 588.77,-257.18 592.68,-262.99"/>
</g>
<!-- 12 -->
<g id="node13" class="node">
<title>12</title>
<path fill="none" stroke="#d8b456" stroke-width="2" d="M436.25,-180C436.25,-180 313.75,-180 313.75,-180 307.75,-180 301.75,-174 301.75,-168 301.75,-168 301.75,-156 301.75,-156 301.75,-150 307.75,-144 313.75,-144 313.75,-144 436.25,-144 436.25,-144 442.25,-144 448.25,-150 448.25,-156 448.25,-156 448.25,-168 448.25,-168 448.25,-174 442.25,-180 436.25,-180"/>
<text xml:space="preserve" text-anchor="middle" x="375" y="-159.62" font-family="sans" font-size="10.00">atac_short_fragment_bigwig</text>
</g>
<!-- 12&#45;&gt;0 -->
<g id="edge10" class="edge">
<title>12&#45;&gt;0</title>
<path fill="none" stroke="grey" stroke-width="2" d="M385.21,-143.35C397.96,-122.95 421.69,-89.89 451,-72 508.4,-36.95 587.13,-25.08 634.34,-21.06"/>
<polygon fill="grey" stroke="grey" stroke-width="2" points="634.34,-24.57 644.05,-20.33 633.81,-17.59 634.34,-24.57"/>
</g>
<!-- 15 -->
<g id="node16" class="node">
<title>15</title>
<path fill="none" stroke="#56a2d8" stroke-width="2" d="M616.12,-108C616.12,-108 471.88,-108 471.88,-108 465.88,-108 459.88,-102 459.88,-96 459.88,-96 459.88,-84 459.88,-84 459.88,-78 465.88,-72 471.88,-72 471.88,-72 616.12,-72 616.12,-72 622.12,-72 628.12,-78 628.12,-84 628.12,-84 628.12,-96 628.12,-96 628.12,-102 622.12,-108 616.12,-108"/>
<text xml:space="preserve" text-anchor="middle" x="544" y="-87.62" font-family="sans" font-size="10.00">refine_atac_short_fragment_cpm</text>
</g>
<!-- 12&#45;&gt;15 -->
<g id="edge32" class="edge">
<title>12&#45;&gt;15</title>
<path fill="none" stroke="grey" stroke-width="2" d="M418.08,-143.15C439.55,-134.26 465.76,-123.41 488.7,-113.91"/>
<polygon fill="grey" stroke="grey" stroke-width="2" points="490.01,-117.15 497.91,-110.09 487.33,-110.69 490.01,-117.15"/>
</g>
<!-- 13&#45;&gt;12 -->
<g id="edge29" class="edge">
<title>13&#45;&gt;12</title>
<path fill="none" stroke="grey" stroke-width="2" d="M393.69,-215.34C391.28,-208.59 388.46,-200.69 385.75,-193.11"/>
<polygon fill="grey" stroke="grey" stroke-width="2" points="389.07,-191.99 382.41,-183.75 382.48,-194.35 389.07,-191.99"/>
</g>
<!-- 14&#45;&gt;0 -->
<g id="edge11" class="edge">
<title>14&#45;&gt;0</title>
<path fill="none" stroke="grey" stroke-width="2" d="M596.94,-143.13C610.62,-134.01 626.06,-121.9 637,-108 650.71,-90.57 660.38,-67.46 666.54,-49.16"/>
<polygon fill="grey" stroke="grey" stroke-width="2" points="669.84,-50.31 669.5,-39.72 663.17,-48.21 669.84,-50.31"/>
</g>
<!-- 14&#45;&gt;15 -->
<g id="edge33" class="edge">
<title>14&#45;&gt;15</title>
<path fill="none" stroke="grey" stroke-width="2" d="M560.45,-143.34C558.33,-136.59 555.85,-128.69 553.46,-121.11"/>
<polygon fill="grey" stroke="grey" stroke-width="2" points="556.87,-120.28 550.53,-111.79 550.19,-122.38 556.87,-120.28"/>
</g>
<!-- 15&#45;&gt;0 -->
<g id="edge3" class="edge">
<title>15&#45;&gt;0</title>
<path fill="none" stroke="grey" stroke-width="2" d="M577.4,-71.15C595.26,-61.61 617.37,-49.79 636.02,-39.83"/>
<polygon fill="grey" stroke="grey" stroke-width="2" points="637.57,-42.97 644.74,-35.17 634.27,-36.8 637.57,-42.97"/>
</g>
<!-- 16&#45;&gt;0 -->
<g id="edge12" class="edge">
<title>16&#45;&gt;0</title>
<path fill="none" stroke="grey" stroke-width="2" d="M649.76,-215.23C659.46,-205.89 669.85,-193.57 675,-180 691.39,-136.82 686.62,-82.31 681.18,-49.08"/>
<polygon fill="grey" stroke="grey" stroke-width="2" points="684.69,-48.85 679.48,-39.62 677.8,-50.09 684.69,-48.85"/>
</g>
<!-- 17&#45;&gt;0 -->
<g id="edge8" class="edge">
<title>17&#45;&gt;0</title>
<path fill="none" stroke="grey" stroke-width="2" d="M797.19,-287.04C796.82,-245.7 791.09,-141.96 746,-72 737.9,-59.43 725.71,-48.76 713.7,-40.36"/>
<polygon fill="grey" stroke="grey" stroke-width="2" points="715.68,-37.48 705.39,-34.95 711.86,-43.34 715.68,-37.48"/>
</g>
<!-- 17&#45;&gt;18 -->
<g id="edge37" class="edge">
<title>17&#45;&gt;18</title>
<path fill="none" stroke="grey" stroke-width="2" d="M813.65,-287.34C820.79,-279.77 829.29,-270.75 837.21,-262.35"/>
<polygon fill="grey" stroke="grey" stroke-width="2" points="839.73,-264.78 844.04,-255.1 834.64,-259.98 839.73,-264.78"/>
</g>
<!-- 22 -->
<g id="node23" class="node">
<title>22</title>
<path fill="none" stroke="#56c1d8" stroke-width="2" d="M922.25,-180C922.25,-180 847.75,-180 847.75,-180 841.75,-180 835.75,-174 835.75,-168 835.75,-168 835.75,-156 835.75,-156 835.75,-150 841.75,-144 847.75,-144 847.75,-144 922.25,-144 922.25,-144 928.25,-144 934.25,-150 934.25,-156 934.25,-156 934.25,-168 934.25,-168 934.25,-174 928.25,-180 922.25,-180"/>
<text xml:space="preserve" text-anchor="middle" x="885" y="-159.62" font-family="sans" font-size="10.00">metrics_summary</text>
</g>
<!-- 17&#45;&gt;22 -->
<g id="edge43" class="edge">
<title>17&#45;&gt;22</title>
<path fill="none" stroke="grey" stroke-width="2" d="M800.25,-287.11C804.29,-268.26 812.48,-238.26 827,-216 833.39,-206.2 842,-197.02 850.63,-189.15"/>
<polygon fill="grey" stroke="grey" stroke-width="2" points="852.69,-192 857.98,-182.82 848.12,-186.7 852.69,-192"/>
</g>
<!-- 18&#45;&gt;0 -->
<g id="edge13" class="edge">
<title>18&#45;&gt;0</title>
<path fill="none" stroke="grey" stroke-width="2" d="M849.66,-215.46C842.39,-205.41 833.57,-192.38 827,-180 802.79,-134.36 819.16,-109.85 784,-72 765.39,-51.97 737.59,-38.62 714.73,-30.33"/>
<polygon fill="grey" stroke="grey" stroke-width="2" points="716.08,-27.09 705.49,-27.2 713.84,-33.72 716.08,-27.09"/>
</g>
<!-- 18&#45;&gt;22 -->
<g id="edge42" class="edge">
<title>18&#45;&gt;22</title>
<path fill="none" stroke="grey" stroke-width="2" d="M868.55,-215.34C870.67,-208.59 873.15,-200.69 875.54,-193.11"/>
<polygon fill="grey" stroke="grey" stroke-width="2" points="878.81,-194.38 878.47,-183.79 872.13,-192.28 878.81,-194.38"/>
</g>
<!-- 18&#45;&gt;24 -->
<g id="edge50" class="edge">
<title>18&#45;&gt;24</title>
<path fill="none" stroke="grey" stroke-width="2" d="M890.64,-218.55C907.1,-209.07 927.69,-195.55 943,-180 960.32,-162.41 975.18,-138.73 985.38,-120.22"/>
<polygon fill="grey" stroke="grey" stroke-width="2" points="988.36,-122.06 989.97,-111.59 982.18,-118.77 988.36,-122.06"/>
</g>
<!-- 19 -->
<g id="node20" class="node">
<title>19</title>
<path fill="none" stroke="#ced856" stroke-width="2" d="M1298.25,-108C1298.25,-108 1235.75,-108 1235.75,-108 1229.75,-108 1223.75,-102 1223.75,-96 1223.75,-96 1223.75,-84 1223.75,-84 1223.75,-78 1229.75,-72 1235.75,-72 1235.75,-72 1298.25,-72 1298.25,-72 1304.25,-72 1310.25,-78 1310.25,-84 1310.25,-84 1310.25,-96 1310.25,-96 1310.25,-102 1304.25,-108 1298.25,-108"/>
<text xml:space="preserve" text-anchor="middle" x="1267" y="-87.62" font-family="sans" font-size="10.00">atac_tss_profile</text>
</g>
<!-- 19&#45;&gt;0 -->
<g id="edge7" class="edge">
<title>19&#45;&gt;0</title>
<path fill="none" stroke="grey" stroke-width="2" d="M1223.02,-74.98C1218.65,-73.86 1214.26,-72.84 1210,-72 1027.73,-36.13 805.49,-24 715.61,-20.38"/>
<polygon fill="grey" stroke="grey" stroke-width="2" points="715.99,-16.89 705.86,-20 715.72,-23.88 715.99,-16.89"/>
</g>
<!-- 20&#45;&gt;19 -->
<g id="edge39" class="edge">
<title>20&#45;&gt;19</title>
<path fill="none" stroke="grey" stroke-width="2" d="M1267,-143.34C1267,-136.75 1267,-129.08 1267,-121.67"/>
<polygon fill="grey" stroke="grey" stroke-width="2" points="1270.5,-121.93 1267,-111.93 1263.5,-121.93 1270.5,-121.93"/>
</g>
<!-- 21&#45;&gt;0 -->
<g id="edge5" class="edge">
<title>21&#45;&gt;0</title>
<path fill="none" stroke="grey" stroke-width="2" d="M295.75,-287.04C292.43,-276.87 288.51,-263.85 286,-252 269.16,-172.51 250.95,-117.9 318,-72 368.81,-37.22 552.06,-24.6 634.41,-20.62"/>
<polygon fill="grey" stroke="grey" stroke-width="2" points="634.34,-24.13 644.17,-20.17 634.02,-17.13 634.34,-24.13"/>
</g>
<!-- 22&#45;&gt;0 -->
<g id="edge15" class="edge">
<title>22&#45;&gt;0</title>
<path fill="none" stroke="grey" stroke-width="2" d="M876.57,-143.15C866.3,-123.18 847.16,-91.14 822,-72 790.45,-48 747.02,-34.13 715.56,-26.64"/>
<polygon fill="grey" stroke="grey" stroke-width="2" points="716.35,-23.23 705.83,-24.47 714.83,-30.07 716.35,-23.23"/>
</g>
<!-- 22&#45;&gt;24 -->
<g id="edge51" class="edge">
<title>22&#45;&gt;24</title>
<path fill="none" stroke="grey" stroke-width="2" d="M914.32,-143.15C928.67,-134.42 946.13,-123.79 961.54,-114.41"/>
<polygon fill="grey" stroke="grey" stroke-width="2" points="963.01,-117.61 969.73,-109.42 959.37,-111.63 963.01,-117.61"/>
</g>
<!-- 23&#45;&gt;22 -->
<g id="edge44" class="edge">
<title>23&#45;&gt;22</title>
<path fill="none" stroke="grey" stroke-width="2" d="M935.09,-215.34C927.77,-207.69 919.03,-198.56 910.92,-190.08"/>
<polygon fill="grey" stroke="grey" stroke-width="2" points="913.67,-187.89 904.23,-183.09 908.61,-192.73 913.67,-187.89"/>
</g>
<!-- 23&#45;&gt;24 -->
<g id="edge47" class="edge">
<title>23&#45;&gt;24</title>
<path fill="none" stroke="grey" stroke-width="2" d="M960.96,-215.15C965.82,-205.01 971.7,-191.98 976,-180 982.85,-160.89 988.81,-138.86 993.07,-121.5"/>
<polygon fill="grey" stroke="grey" stroke-width="2" points="996.44,-122.48 995.35,-111.94 989.63,-120.85 996.44,-122.48"/>
</g>
<!-- 24&#45;&gt;0 -->
<g id="edge14" class="edge">
<title>24&#45;&gt;0</title>
<path fill="none" stroke="grey" stroke-width="2" d="M972.01,-82.97C914.27,-70.54 781.78,-42 715.01,-27.62"/>
<polygon fill="grey" stroke="grey" stroke-width="2" points="716.05,-24.26 705.54,-25.58 714.58,-31.1 716.05,-24.26"/>
</g>
<!-- 25 -->
<g id="node26" class="node">
<title>25</title>
<path fill="none" stroke="#56d87b" stroke-width="2" d="M1080.38,-180C1080.38,-180 1039.62,-180 1039.62,-180 1033.62,-180 1027.62,-174 1027.62,-168 1027.62,-168 1027.62,-156 1027.62,-156 1027.62,-150 1033.62,-144 1039.62,-144 1039.62,-144 1080.38,-144 1080.38,-144 1086.38,-144 1092.38,-150 1092.38,-156 1092.38,-156 1092.38,-168 1092.38,-168 1092.38,-174 1086.38,-180 1080.38,-180"/>
<text xml:space="preserve" text-anchor="middle" x="1060" y="-159.62" font-family="sans" font-size="10.00">fastqc_raw</text>
</g>
<!-- 25&#45;&gt;24 -->
<g id="edge48" class="edge">
<title>25&#45;&gt;24</title>
<path fill="none" stroke="grey" stroke-width="2" d="M1044.86,-143.34C1038.44,-135.85 1030.81,-126.95 1023.68,-118.63"/>
<polygon fill="grey" stroke="grey" stroke-width="2" points="1026.48,-116.51 1017.31,-111.2 1021.16,-121.07 1026.48,-116.51"/>
</g>
<!-- 26&#45;&gt;24 -->
<g id="edge49" class="edge">
<title>26&#45;&gt;24</title>
<path fill="none" stroke="grey" stroke-width="2" d="M1017.72,-431.08C1017.77,-400.78 1020.13,-337.86 1037,-288 1059.44,-221.66 1137.31,-203.89 1101,-144 1085.17,-117.89 1067.37,-122.38 1039.55,-111.23"/>
<polygon fill="grey" stroke="grey" stroke-width="2" points="1041.21,-108.14 1030.66,-107.12 1038.27,-114.49 1041.21,-108.14"/>
</g>
<!-- 27 -->
<g id="node28" class="node">
<title>27</title>
<path fill="none" stroke="#5692d8" stroke-width="2" d="M1464,-108C1464,-108 1340,-108 1340,-108 1334,-108 1328,-102 1328,-96 1328,-96 1328,-84 1328,-84 1328,-78 1334,-72 1340,-72 1340,-72 1464,-72 1464,-72 1470,-72 1476,-78 1476,-84 1476,-84 1476,-96 1476,-96 1476,-102 1470,-108 1464,-108"/>
<text xml:space="preserve" text-anchor="middle" x="1402" y="-87.62" font-family="sans" font-size="10.00">resolved_config_provenance</text>
</g>
<!-- 27&#45;&gt;0 -->
<g id="edge9" class="edge">
<title>27&#45;&gt;0</title>
<path fill="none" stroke="grey" stroke-width="2" d="M1327.42,-73.28C1324.58,-72.83 1321.77,-72.4 1319,-72 1092.32,-39.58 817.7,-25.16 715.7,-20.65"/>
<polygon fill="grey" stroke="grey" stroke-width="2" points="715.92,-17.16 705.77,-20.22 715.61,-24.15 715.92,-17.16"/>
</g>
</g>
</svg>
