<?xml version="1.0" encoding="UTF-8" standalone="no"?>
<!DOCTYPE svg PUBLIC "-//W3C//DTD SVG 1.1//EN"
 "http://www.w3.org/Graphics/SVG/1.1/DTD/svg11.dtd">
<!-- Generated by graphviz version 2.43.0 (0)
 -->
<!-- Title: workflow Pages: 1 -->
<svg width="1607pt" height="178pt"
 viewBox="0.00 0.00 1607.00 177.75" xmlns="http://www.w3.org/2000/svg" xmlns:xlink="http://www.w3.org/1999/xlink">
<g id="graph0" class="graph" transform="scale(1 1) rotate(0) translate(18 159.75)">
<title>workflow</title>
<!-- accessions -->
<g id="node1" class="node">
<title>accessions</title>
<path fill="#f4f7fa" stroke="#40566b" d="M220,-68.75C220,-68.75 12,-68.75 12,-68.75 6,-68.75 0,-62.75 0,-56.75 0,-56.75 0,-44.75 0,-44.75 0,-38.75 6,-32.75 12,-32.75 12,-32.75 220,-32.75 220,-32.75 226,-32.75 232,-38.75 232,-44.75 232,-44.75 232,-56.75 232,-56.75 232,-62.75 226,-68.75 220,-68.75"/>
<text text-anchor="middle" x="116" y="-47.95" font-family="Helvetica,sans-Serif" font-size="11.00">Accession + library + assay + context</text>
</g>
<!-- download -->
<g id="node2" class="node">
<title>download</title>
<path fill="#f4f7fa" stroke="#40566b" d="M414,-68.75C414,-68.75 284,-68.75 284,-68.75 278,-68.75 272,-62.75 272,-56.75 272,-56.75 272,-44.75 272,-44.75 272,-38.75 278,-32.75 284,-32.75 284,-32.75 414,-32.75 414,-32.75 420,-32.75 426,-38.75 426,-44.75 426,-44.75 426,-56.75 426,-56.75 426,-62.75 420,-68.75 414,-68.75"/>
<text text-anchor="middle" x="349" y="-47.95" font-family="Helvetica,sans-Serif" font-size="11.00">Parallel FASTQ download</text>
</g>
<!-- accessions&#45;&gt;download -->
<g id="edge1" class="edge">
<title>accessions&#45;&gt;download</title>
<path fill="none" stroke="#607d8b" d="M232.16,-50.75C243.09,-50.75 254.02,-50.75 264.56,-50.75"/>
<polygon fill="#607d8b" stroke="#607d8b" points="264.8,-53.2 271.8,-50.75 264.8,-48.3 264.8,-53.2"/>
</g>
<!-- preprocess -->
<g id="node3" class="node">
<title>preprocess</title>
<path fill="#f4f7fa" stroke="#40566b" d="M578,-68.75C578,-68.75 478,-68.75 478,-68.75 472,-68.75 466,-62.75 466,-56.75 466,-56.75 466,-44.75 466,-44.75 466,-38.75 472,-32.75 478,-32.75 478,-32.75 578,-32.75 578,-32.75 584,-32.75 590,-38.75 590,-44.75 590,-44.75 590,-56.75 590,-56.75 590,-62.75 584,-68.75 578,-68.75"/>
<text text-anchor="middle" x="528" y="-47.95" font-family="Helvetica,sans-Serif" font-size="11.00">FastQC + Cutadapt</text>
</g>
<!-- download&#45;&gt;preprocess -->
<g id="edge2" class="edge">
<title>download&#45;&gt;preprocess</title>
<path fill="none" stroke="#607d8b" d="M426.09,-50.75C436.9,-50.75 447.96,-50.75 458.62,-50.75"/>
<polygon fill="#607d8b" stroke="#607d8b" points="458.92,-53.2 465.92,-50.75 458.92,-48.3 458.92,-53.2"/>
</g>
<!-- align -->
<g id="node4" class="node">
<title>align</title>
<path fill="#f4f7fa" stroke="#40566b" d="M785,-68.75C785,-68.75 642,-68.75 642,-68.75 636,-68.75 630,-62.75 630,-56.75 630,-56.75 630,-44.75 630,-44.75 630,-38.75 636,-32.75 642,-32.75 642,-32.75 785,-32.75 785,-32.75 791,-32.75 797,-38.75 797,-44.75 797,-44.75 797,-56.75 797,-56.75 797,-62.75 791,-68.75 785,-68.75"/>
<text text-anchor="middle" x="713.5" y="-47.95" font-family="Helvetica,sans-Serif" font-size="11.00">Bowtie2 + BAM processing</text>
</g>
<!-- preprocess&#45;&gt;align -->
<g id="edge3" class="edge">
<title>preprocess&#45;&gt;align</title>
<path fill="none" stroke="#607d8b" d="M590.1,-50.75C600.54,-50.75 611.57,-50.75 622.56,-50.75"/>
<polygon fill="#607d8b" stroke="#607d8b" points="622.78,-53.2 629.78,-50.75 622.78,-48.3 622.78,-53.2"/>
</g>
<!-- atac -->
<g id="node5" class="node">
<title>atac</title>
<path fill="#e8f4ff" stroke="#40566b" d="M990,-141.75C990,-141.75 849,-141.75 849,-141.75 843,-141.75 837,-135.75 837,-129.75 837,-129.75 837,-105.75 837,-105.75 837,-99.75 843,-93.75 849,-93.75 849,-93.75 990,-93.75 990,-93.75 996,-93.75 1002,-99.75 1002,-105.75 1002,-105.75 1002,-129.75 1002,-129.75 1002,-135.75 996,-141.75 990,-141.75"/>
<text text-anchor="middle" x="919.5" y="-126.95" font-family="Helvetica,sans-Serif" font-size="11.00">ATAC replicate peaks</text>
<text text-anchor="middle" x="919.5" y="-114.95" font-family="Helvetica,sans-Serif" font-size="11.00">Tn5/MACS3&#45;qpois (default)</text>
<text text-anchor="middle" x="919.5" y="-102.95" font-family="Helvetica,sans-Serif" font-size="11.00">or HMMRATAC</text>
</g>
<!-- align&#45;&gt;atac -->
<g id="edge4" class="edge">
<title>align&#45;&gt;atac</title>
<path fill="none" stroke="#607d8b" d="M769.44,-68.79C790.6,-75.74 815.22,-83.83 838.28,-91.4"/>
<polygon fill="#607d8b" stroke="#607d8b" points="837.64,-93.77 845.06,-93.63 839.17,-89.12 837.64,-93.77"/>
</g>
<!-- chip -->
<g id="node8" class="node">
<title>chip</title>
<path fill="#fff2df" stroke="#40566b" d="M980.5,-68.75C980.5,-68.75 858.5,-68.75 858.5,-68.75 852.5,-68.75 846.5,-62.75 846.5,-56.75 846.5,-56.75 846.5,-44.75 846.5,-44.75 846.5,-38.75 852.5,-32.75 858.5,-32.75 858.5,-32.75 980.5,-32.75 980.5,-32.75 986.5,-32.75 992.5,-38.75 992.5,-44.75 992.5,-44.75 992.5,-56.75 992.5,-56.75 992.5,-62.75 986.5,-68.75 980.5,-68.75"/>
<text text-anchor="middle" x="919.5" y="-53.95" font-family="Helvetica,sans-Serif" font-size="11.00">MACS3 ChIP peaks</text>
<text text-anchor="middle" x="919.5" y="-41.95" font-family="Helvetica,sans-Serif" font-size="11.00">optional matched input</text>
</g>
<!-- align&#45;&gt;chip -->
<g id="edge7" class="edge">
<title>align&#45;&gt;chip</title>
<path fill="none" stroke="#607d8b" d="M797.18,-50.75C811.01,-50.75 825.32,-50.75 839.07,-50.75"/>
<polygon fill="#607d8b" stroke="#607d8b" points="839.19,-53.2 846.19,-50.75 839.19,-48.3 839.19,-53.2"/>
</g>
<!-- qc -->
<g id="node10" class="node">
<title>qc</title>
<path fill="#f1e9fa" stroke="#40566b" d="M1559,-68.75C1559,-68.75 1412,-68.75 1412,-68.75 1406,-68.75 1400,-62.75 1400,-56.75 1400,-56.75 1400,-44.75 1400,-44.75 1400,-38.75 1406,-32.75 1412,-32.75 1412,-32.75 1559,-32.75 1559,-32.75 1565,-32.75 1571,-38.75 1571,-44.75 1571,-44.75 1571,-56.75 1571,-56.75 1571,-62.75 1565,-68.75 1559,-68.75"/>
<text text-anchor="middle" x="1485.5" y="-47.95" font-family="Helvetica,sans-Serif" font-size="11.00">FRiP + assay QC + MultiQC</text>
</g>
<!-- align&#45;&gt;qc -->
<g id="edge9" class="edge">
<title>align&#45;&gt;qc</title>
<path fill="none" stroke="#607d8b" d="M775.66,-32.72C795.09,-27.82 816.78,-23.19 837,-20.75 1067.77,7.1 1129.18,6.67 1360,-20.75 1378.13,-22.9 1397.43,-26.76 1415.3,-31.01"/>
<polygon fill="#607d8b" stroke="#607d8b" points="1414.95,-33.45 1422.33,-32.72 1416.1,-28.68 1414.95,-33.45"/>
</g>
<!-- pool -->
<g id="node6" class="node">
<title>pool</title>
<path fill="#e8f4ff" stroke="#40566b" d="M1175,-133.75C1175,-133.75 1054,-133.75 1054,-133.75 1048,-133.75 1042,-127.75 1042,-121.75 1042,-121.75 1042,-109.75 1042,-109.75 1042,-103.75 1048,-97.75 1054,-97.75 1054,-97.75 1175,-97.75 1175,-97.75 1181,-97.75 1187,-103.75 1187,-109.75 1187,-109.75 1187,-121.75 1187,-121.75 1187,-127.75 1181,-133.75 1175,-133.75"/>
<text text-anchor="middle" x="1114.5" y="-118.95" font-family="Helvetica,sans-Serif" font-size="11.00">Pool biological libraries</text>
<text text-anchor="middle" x="1114.5" y="-106.95" font-family="Helvetica,sans-Serif" font-size="11.00">within each context</text>
</g>
<!-- atac&#45;&gt;pool -->
<g id="edge5" class="edge">
<title>atac&#45;&gt;pool</title>
<path fill="none" stroke="#607d8b" d="M1002.07,-116.91C1012.87,-116.79 1023.93,-116.68 1034.68,-116.57"/>
<polygon fill="#607d8b" stroke="#607d8b" points="1034.73,-119.02 1041.7,-116.49 1034.68,-114.12 1034.73,-119.02"/>
</g>
<!-- consensus -->
<g id="node7" class="node">
<title>consensus</title>
<path fill="#dff3e5" stroke="#40566b" d="M1346,-132.75C1346,-132.75 1241,-132.75 1241,-132.75 1235,-132.75 1229,-126.75 1229,-120.75 1229,-120.75 1229,-108.75 1229,-108.75 1229,-102.75 1235,-96.75 1241,-96.75 1241,-96.75 1346,-96.75 1346,-96.75 1352,-96.75 1358,-102.75 1358,-108.75 1358,-108.75 1358,-120.75 1358,-120.75 1358,-126.75 1352,-132.75 1346,-132.75"/>
<text text-anchor="middle" x="1293.5" y="-117.95" font-family="Helvetica,sans-Serif" font-size="11.00">Replicate&#45;supported</text>
<text text-anchor="middle" x="1293.5" y="-105.95" font-family="Helvetica,sans-Serif" font-size="11.00">context ATAC peaks</text>
</g>
<!-- pool&#45;&gt;consensus -->
<g id="edge6" class="edge">
<title>pool&#45;&gt;consensus</title>
<path fill="none" stroke="#607d8b" d="M1187.24,-115.35C1198.67,-115.28 1210.48,-115.21 1221.88,-115.15"/>
<polygon fill="#607d8b" stroke="#607d8b" points="1221.93,-117.6 1228.92,-115.11 1221.91,-112.7 1221.93,-117.6"/>
</g>
<!-- consensus&#45;&gt;qc -->
<g id="edge10" class="edge">
<title>consensus&#45;&gt;qc</title>
<path fill="none" stroke="#607d8b" d="M1348.18,-96.67C1371.86,-88.69 1399.78,-79.29 1424.17,-71.07"/>
<polygon fill="#607d8b" stroke="#607d8b" points="1425.1,-73.35 1430.95,-68.79 1423.53,-68.7 1425.1,-73.35"/>
</g>
<!-- chipout -->
<g id="node9" class="node">
<title>chipout</title>
<path fill="#fff2df" stroke="#40566b" d="M1348,-68.75C1348,-68.75 1239,-68.75 1239,-68.75 1233,-68.75 1227,-62.75 1227,-56.75 1227,-56.75 1227,-44.75 1227,-44.75 1227,-38.75 1233,-32.75 1239,-32.75 1239,-32.75 1348,-32.75 1348,-32.75 1354,-32.75 1360,-38.75 1360,-44.75 1360,-44.75 1360,-56.75 1360,-56.75 1360,-62.75 1354,-68.75 1348,-68.75"/>
<text text-anchor="middle" x="1293.5" y="-53.95" font-family="Helvetica,sans-Serif" font-size="11.00">Per&#45;biosample ChIP</text>
<text text-anchor="middle" x="1293.5" y="-41.95" font-family="Helvetica,sans-Serif" font-size="11.00">peaks + CPM BigWig</text>
</g>
<!-- chip&#45;&gt;chipout -->
<g id="edge8" class="edge">
<title>chip&#45;&gt;chipout</title>
<path fill="none" stroke="#607d8b" d="M992.67,-50.75C1058.11,-50.75 1154.09,-50.75 1219.72,-50.75"/>
<polygon fill="#607d8b" stroke="#607d8b" points="1219.77,-53.2 1226.77,-50.75 1219.77,-48.3 1219.77,-53.2"/>
</g>
<!-- chipout&#45;&gt;qc -->
<g id="edge11" class="edge">
<title>chipout&#45;&gt;qc</title>
<path fill="none" stroke="#607d8b" d="M1360.15,-50.75C1370.62,-50.75 1381.62,-50.75 1392.57,-50.75"/>
<polygon fill="#607d8b" stroke="#607d8b" points="1392.74,-53.2 1399.74,-50.75 1392.74,-48.3 1392.74,-53.2"/>
</g>
</g>
</svg>
